<svg width="160" height="158" viewBox="0 0 160 158" fill="none" xmlns="http://www.w3.org/2000/svg">
<path d="M40.7752 154.57C45.2004 157.124 50.1251 158.063 54.8635 157.565C61.9946 156.816 68.6891 152.811 72.5735 146.201C72.5851 146.186 72.596 146.171 72.6061 146.156C72.6155 146.14 72.6249 146.125 72.6337 146.109L72.647 146.085C72.6564 146.069 72.665 146.053 72.6738 146.038L86.3845 122.314L104.728 142.668C104.746 142.691 104.765 142.707 104.782 142.726C104.791 142.735 104.799 142.744 104.807 142.754C113.437 152.243 128.181 152.984 137.717 144.393C147.264 135.802 148.05 121.048 139.505 111.469L139.485 111.445C139.469 111.424 139.457 111.409 139.438 111.394L121.128 91.0231L146.152 79.8656C157.907 74.6246 163.215 60.7819 157.975 49.0221C152.736 37.2629 138.908 31.9504 127.141 37.1811L102.114 48.3041L99.2363 21.0381C97.8783 8.23641 86.3655 -1.08984 73.5673 0.255302C60.7691 1.60045 51.447 13.1165 52.7822 25.9323L55.6225 53.1788L28.8293 47.5022C28.819 47.5033 28.8063 47.5024 28.7933 47.5001C28.7766 47.4975 28.7591 47.4927 28.7454 47.4876C16.1755 44.862 3.80178 52.9283 1.13043 65.4961C-1.54106 78.0633 6.47828 90.4583 19.0114 93.1817C19.023 93.1839 19.0334 93.1869 19.0435 93.19L19.0879 93.2019L19.1081 93.2067L45.8931 98.9189L32.2186 122.651C32.214 122.663 32.2066 122.676 32.1992 122.688C32.1916 122.701 32.1842 122.713 32.1796 122.726C25.8011 133.873 29.6502 148.152 40.7752 154.57Z" fill="#603BAF"/>
</svg>
