<svg width="685" height="613" viewBox="0 0 685 613" fill="none" xmlns="http://www.w3.org/2000/svg">
<path d="M396.917 449.039L396.054 449.164L396.598 449.845L524.153 609.766L342.814 463.739L342.501 463.487L342.188 463.738L160.913 608.759L289.373 449.848L289.923 449.167L289.058 449.039L6.08198 407.116L283.155 402.355L284.201 402.338L283.53 401.535L50.0083 122.261L317.837 368.168L318.605 368.874L318.674 367.833L342.5 7.57642L366.326 367.833L366.395 368.874L367.163 368.168L635.076 122.183L402.442 401.536L401.778 402.334L402.816 402.355L678.942 408.068L396.917 449.039Z" fill="white" stroke="#141414"/>
</svg>
