<svg width="205" height="288" viewBox="0 0 205 288" fill="none" xmlns="http://www.w3.org/2000/svg">
<path d="M167.301 73.3926C164.526 74.2059 162.582 76.0081 161.436 78.6586C160.289 81.3091 160.192 84.005 160.899 86.9539C161.639 90.0432 163.121 92.5094 165.271 94.6669C167.421 96.8244 170.005 97.6903 173.088 97.5455L167.301 73.3926Z" fill="#068952"/>
<path d="M113.902 157.905C114.981 154.974 115.291 151.93 114.517 148.7C113.676 145.19 112.127 142.443 109.73 140.493C107.473 138.509 104.682 137.396 101.464 136.979L107.856 163.66C110.771 162.813 112.822 160.837 113.902 157.905Z" fill="#068952"/>
<path d="M195.347 138.391C196.427 135.46 196.737 132.416 195.963 129.186C195.122 125.675 193.573 122.928 191.175 120.979C188.918 118.995 186.127 117.882 182.909 117.465L189.302 144.146C192.217 143.299 194.268 141.322 195.347 138.391Z" fill="#068952"/>
<path d="M85.8553 92.9069C83.0805 93.7203 81.1365 95.5224 79.9897 98.1729C78.843 100.823 78.7465 103.519 79.453 106.468C80.1932 109.558 81.675 112.024 83.8253 114.181C85.9756 116.339 88.5588 117.205 91.6423 117.06L85.8553 92.9069Z" fill="#068952"/>
<path d="M110.011 4.70985C33.0591 23.1475 -14.4573 100.608 3.9804 177.561C22.4181 254.513 99.8789 302.029 176.831 283.592C253.783 265.154 301.3 187.693 282.862 110.741C264.424 33.7886 186.964 -13.7278 110.011 4.70985ZM166.376 114.151C163.164 113.139 160.305 111.745 157.801 109.969C155.297 108.193 153.253 105.862 151.564 103.148C149.874 100.435 148.612 97.0251 147.603 92.8124C146.66 88.8805 146.347 85.0949 146.63 81.3152C146.912 77.5354 147.89 74.1828 149.217 71.0437C150.544 67.9046 152.6 65.333 155.039 63.1155C157.477 60.8979 160.398 59.4556 163.594 58.5413L162.013 51.9414L166.787 50.7974L168.369 57.3974C182.827 54.5272 192.624 62.5737 197.868 81.3627L184.247 84.6263C182.514 79.2507 180.797 75.8015 178.921 74.1721C177.046 72.5426 174.67 71.9239 172.109 72.3891L178.3 98.2271C184.034 99.229 188.751 100.326 192.345 101.692C195.939 103.058 198.865 104.733 201.122 106.717C203.379 108.7 205.108 110.958 206.343 113.632C207.577 116.306 208.632 119.469 209.54 123.26C210.617 127.754 210.997 131.82 210.715 135.6C210.433 139.38 209.662 142.98 208.161 146.012C206.694 149.185 204.638 151.756 202.059 154.007C199.48 156.259 196.452 157.875 192.975 158.856L194.388 164.754L189.614 165.898L188.201 160C183.713 160.482 179.86 160.514 176.434 159.85C173.009 159.186 170.01 157.826 167.405 155.629C164.8 153.432 162.621 150.538 160.73 146.982C158.805 143.286 157.307 138.893 156.029 133.557L169.931 130.226C170.985 133.389 172.046 135.956 173.112 137.928C174.179 139.899 175.144 141.45 176.323 142.652C177.468 143.714 178.687 144.462 179.978 144.895C181.27 145.328 182.775 145.412 184.668 145.256L177.67 116.048C173.435 115.726 169.728 115.129 166.376 114.151ZM84.93 133.665C81.7178 132.653 78.8595 131.259 76.3553 129.483C73.851 127.707 71.8075 125.376 70.118 122.662C68.4285 119.949 67.1661 116.539 66.1567 112.327C65.2146 108.395 64.9015 104.609 65.1838 100.83C65.466 97.0498 66.4446 93.6971 67.7712 90.558C69.0979 87.4189 71.1545 84.8474 73.5929 82.6298C76.0313 80.4122 78.9524 78.9699 82.1485 78.0556L80.5671 71.4557L85.3415 70.3118L86.9229 76.9117C101.381 74.0416 111.178 82.088 116.423 100.877L102.801 104.141C101.068 98.765 99.3507 95.3159 97.4754 93.6864C95.6002 92.0569 93.2246 91.4382 90.6634 91.9034L96.8541 117.741C102.588 118.743 107.306 119.84 110.9 121.206C114.494 122.573 117.419 124.247 119.676 126.231C121.933 128.214 123.662 130.473 124.897 133.147C126.131 135.821 127.186 138.983 128.095 142.774C129.171 147.268 129.552 151.335 129.269 155.114C128.987 158.894 128.216 162.494 126.715 165.526C125.215 168.558 123.192 171.27 120.613 173.522C118.034 175.773 115.006 177.389 111.529 178.371L112.942 184.269L108.168 185.413L106.755 179.515C102.267 179.996 98.4143 180.028 94.9886 179.364C91.5628 178.7 88.5641 177.34 85.9589 175.143C83.3537 172.946 81.1756 170.053 79.2842 166.497C77.3592 162.8 75.8613 158.408 74.5827 153.072L88.4847 149.741C89.5394 152.903 90.5999 155.47 91.6663 157.442C92.7327 159.414 93.6981 160.964 94.8771 162.167C96.0225 163.229 97.241 163.976 98.5326 164.409C99.8242 164.842 101.329 164.927 103.222 164.77L96.2239 135.562C91.9893 135.24 88.2826 134.644 84.93 133.665ZM263.103 111.317C260.002 113.248 256.593 114.511 253.082 115.352C251.959 115.621 250.835 115.89 249.678 116.019C248.126 134.951 244.267 153.546 237.857 171.415C223.632 211.202 199.186 236.214 167.31 243.852C135.433 251.489 102.306 240.272 71.5952 211.251C57.9241 198.193 45.9162 183.401 35.9531 167.227C34.8634 167.637 33.74 167.906 32.757 168.142C29.2801 169.123 25.6349 169.403 22.136 169.053C20.5971 168.828 19.3845 167.485 19.5761 165.806C19.8013 164.267 21.1441 163.054 22.8234 163.246C22.9974 163.353 35.1398 164.452 48.4492 153.691C49.6852 152.652 51.5385 152.951 52.5771 154.187C53.6157 155.423 53.3173 157.276 52.0813 158.314C48.8677 161.015 45.2386 163.221 41.5086 165.005C50.9889 180.403 100.526 253.913 166.104 238.201C231.682 222.489 242.493 134.371 244 116.489C239.866 116.588 235.631 116.266 231.543 115.316C229.97 114.95 229.005 113.399 229.23 111.861C229.596 110.288 231.146 109.323 232.685 109.548C249.707 113.042 259.718 106.486 259.825 106.312C261.095 105.414 262.948 105.712 263.88 107.122C264.671 108.566 264.373 110.419 263.103 111.317Z" fill="#068952"/>
</svg>
