<svg width="149" height="149" viewBox="0 0 149 149" fill="none" xmlns="http://www.w3.org/2000/svg">
<path d="M76.4364 149V94.781L87.2394 147.777L91.316 146.962L80.7168 95.1887L100.896 144.108L104.769 142.477L83.9781 92.335L114.553 137.178L118.018 134.936L88.2586 91.1121L125.56 128.617L128.617 125.559L90.5007 87.4431L135.343 117.406L137.586 113.941L93.5582 84.5895L142.477 104.973L143.904 101.304L93.762 80.3091L147.166 90.5006L147.981 86.424L96.0041 76.4363H149V72.3597H94.7811L147.777 61.5567L146.962 57.48L95.1888 68.0792L144.108 47.9L142.477 44.2311L92.3352 64.8179L137.382 34.4472L134.936 30.9821L91.1122 60.5375L128.617 23.2365L125.56 20.3829L87.4432 58.4992L117.406 13.4527L113.941 11.2105L84.5896 55.2379L104.973 6.52245L101.304 4.89181L80.3092 55.2379L90.5007 1.83435L86.4241 1.01903L76.4364 52.7919V-0.00012207H72.3598V54.0149L61.5568 1.01903L57.4802 1.83435L68.0794 53.6073L47.9001 4.89181L44.2312 6.52245L64.8181 56.6647L34.4473 11.6182L30.9822 13.8603L60.5376 57.6839L23.2367 20.3829L20.383 23.2365L58.4993 61.3528L13.4528 31.5936L11.2107 35.0587L55.238 64.2065L6.52257 43.8234L4.89193 47.6962L55.238 68.6907L1.83447 58.2954L1.01915 62.372L52.7921 72.3597H0V76.4363H54.0151L1.01915 87.4431L1.83447 91.3159L53.6074 80.7167L4.89193 100.896L6.52257 104.769L56.6648 83.978L11.6183 114.553L13.8605 118.018L57.684 88.2584L20.383 125.559L23.2367 128.617L61.3529 90.5006L31.5937 135.343L35.0588 137.585L64.2066 93.558L43.8235 142.477L47.6963 143.904L68.6908 93.7619L58.2955 147.165L62.3721 147.981L72.3598 96.004V149H76.4364Z" fill="#CCFF33"/>
</svg>
