<svg width="256" height="344" viewBox="0 0 256 344" fill="none" xmlns="http://www.w3.org/2000/svg">
<path d="M240.984 295.444L69.8495 335.471C62.1311 337.276 54.7736 332.799 53.3809 325.56L8.64094 93.0263C7.24819 85.7876 12.3232 78.4022 20.0416 76.5969L191.176 36.5704C198.895 34.7651 206.252 39.2427 207.645 46.4814L252.385 279.015C253.778 286.254 248.722 293.635 240.984 295.444Z" fill="#CCFF33" stroke="#141414"/>
<path d="M68.441 311.623L25.866 86.7549L190.618 47.5638L233.193 272.432L68.441 311.623Z" fill="#F5FAEE" stroke="#141414"/>
<path d="M213.826 173.622C218.667 209.645 220.128 239.925 215.474 260.469C145.788 288.306 97.8422 300.349 58.3643 306.945C53.801 255.076 39.9981 170.849 26.1915 86.7422L112.76 66.3236L191.973 52.5423C200.769 95.8738 208.983 137.585 213.826 173.622Z" fill="white" stroke="#141414"/>
<path d="M68.7976 106.628L67.0009 96.0846L150.686 79.1403L152.482 89.684L68.7976 106.628Z" fill="#603BAF" stroke="#141414"/>
<path d="M98.8179 125.916L98.06 121.617L173.219 106.936L173.977 111.234L98.8179 125.916Z" fill="#603BAF" stroke="#141414"/>
<path d="M101.225 138.718L100.463 134.361L151.292 124.316L152.054 128.672L101.225 138.718Z" fill="#603BAF" stroke="#141414"/>
<path d="M74.129 125.485L55.6304 129.42L58.5011 146.854L76.9996 142.919L74.129 125.485Z" fill="white"/>
<path fill-rule="evenodd" clip-rule="evenodd" d="M55.2401 129.173L74.4144 125.094L77.39 143.166L58.2156 147.244L55.2401 129.173ZM56.0208 129.666L58.7865 146.464L76.6093 142.672L73.8435 125.875L56.0208 129.666Z" fill="#141414"/>
<path d="M59.2376 133.254C60.1849 135.17 62.8618 143.458 66.965 139.981C67.9046 139.189 68.5342 137.504 69.1486 136.486C70.2732 134.646 71.3978 132.805 72.5417 130.96C74.791 127.279 77.0561 123.576 79.3053 119.895C79.8914 118.941 76.32 117.763 75.5978 118.958C73.5957 122.239 71.5937 125.52 69.5688 128.787C68.5678 130.428 67.5668 132.068 66.5657 133.709C65.8719 134.84 64.4142 138.333 63.1688 138.894C63.9049 138.946 64.6603 138.994 65.393 139.028C65.9669 139.29 64.5259 136.79 64.4929 136.722C63.9054 135.535 63.3213 134.367 62.7145 133.185C62.2522 132.234 58.5021 131.818 59.2376 133.254Z" fill="#03824D"/>
<path d="M104.96 158.602L104.201 154.275L165.959 142.143L166.718 146.471L104.96 158.602Z" fill="#603BAF" stroke="#141414"/>
<path d="M107.37 171.414L106.612 167.114L181.771 152.434L182.529 156.734L107.37 171.414Z" fill="#603BAF" stroke="#141414"/>
<path d="M80.2699 158.165L61.7722 162.099L64.6436 179.534L83.1414 175.6L80.2699 158.165Z" fill="white"/>
<path fill-rule="evenodd" clip-rule="evenodd" d="M61.3819 161.852L80.5554 157.774L83.5317 175.846L64.3583 179.924L61.3819 161.852ZM62.1626 162.345L64.9291 179.143L82.7511 175.353L79.9845 158.555L62.1626 162.345Z" fill="#141414"/>
<path d="M65.4725 166.464C66.4198 168.38 69.097 176.669 73.2 173.191C74.1395 172.399 74.769 170.714 75.3834 169.696C76.5079 167.856 77.6324 166.016 78.7763 164.171C81.0253 160.49 83.2902 156.786 85.5393 153.105C86.1254 152.151 82.5539 150.973 81.8318 152.168C79.8299 155.449 77.828 158.73 75.8033 161.997C74.8024 163.638 73.8014 165.278 72.8005 166.919C72.1067 168.05 70.6491 171.543 69.4038 172.104C70.1399 172.157 70.8953 172.204 71.628 172.239C72.2019 172.5 70.7608 170 70.7278 169.932C70.1402 168.746 69.5561 167.577 68.9493 166.395C68.4869 165.444 64.7562 165.024 65.4725 166.464Z" fill="#03824D"/>
<path d="M111.109 191.313L110.35 187.013L185.509 172.332L186.267 176.632L111.109 191.313Z" fill="#603BAF" stroke="#141414"/>
<path d="M113.536 204.111L112.769 199.68L145.929 193.034L146.696 197.465L113.536 204.111Z" fill="#603BAF" stroke="#141414"/>
<path d="M86.4325 190.859L67.9363 194.791L70.8093 212.228L89.3055 208.296L86.4325 190.859Z" fill="white"/>
<path fill-rule="evenodd" clip-rule="evenodd" d="M67.546 194.544L86.7179 190.469L89.6959 208.543L70.5239 212.619L67.546 194.544ZM68.3266 195.038L71.0947 211.838L88.9152 208.05L86.1471 191.25L68.3266 195.038Z" fill="#141414"/>
<path d="M71.9104 199.336C72.8579 201.252 75.5354 209.542 79.6381 206.064C80.5776 205.272 81.2069 203.588 81.8213 202.57C82.9457 200.729 84.0701 198.889 85.2138 197.044C87.4626 193.363 89.7272 189.659 91.976 185.978C92.562 185.024 88.9906 183.846 88.2686 185.041C86.2669 188.322 84.2652 191.603 82.2408 194.87C81.2399 196.511 80.2391 198.151 79.2383 199.792C78.5446 200.923 77.0872 204.416 75.8419 204.977C76.578 205.03 77.3334 205.077 78.066 205.112C78.64 205.373 77.1988 202.873 77.1658 202.805C76.5782 201.618 75.994 200.449 75.3871 199.267C74.9441 198.311 71.1942 197.895 71.9104 199.336Z" fill="#03824D"/>
<path d="M117.269 223.989L116.511 219.689L191.67 205.009L192.428 209.309L117.269 223.989Z" fill="#603BAF" stroke="#141414"/>
<path d="M119.679 236.806L118.918 232.472L178.128 220.827L178.888 225.161L119.679 236.806Z" fill="#603BAF" stroke="#141414"/>
<path d="M92.5786 223.558L74.0815 227.491L76.9537 244.927L95.4507 240.994L92.5786 223.558Z" fill="white"/>
<path fill-rule="evenodd" clip-rule="evenodd" d="M73.6912 227.244L92.8641 223.167L95.8411 241.241L76.6683 245.317L73.6912 227.244ZM74.4719 227.737L77.2391 244.537L95.0605 240.747L92.2933 223.948L74.4719 227.737Z" fill="#141414"/>
<path d="M78.0305 231.826C78.978 233.742 81.6552 242.031 85.7581 238.553C86.6976 237.761 87.3271 236.076 87.9414 235.058C89.0659 233.218 90.1904 231.378 91.3342 229.533C93.5831 225.852 95.8479 222.148 98.0969 218.467C98.6829 217.513 95.1115 216.335 94.3894 217.53C92.3876 220.811 90.3858 224.092 88.3612 227.359C87.3603 229 86.3594 230.64 85.3585 232.281C84.6647 233.412 83.2072 236.905 81.9619 237.466C82.698 237.519 83.4534 237.566 84.1861 237.601C84.76 237.862 83.3189 235.362 83.2859 235.294C82.6983 234.107 82.1142 232.939 81.5073 231.757C81.045 230.805 77.3143 230.385 78.0305 231.826Z" fill="#03824D"/>
<path d="M123.366 256.453L122.598 251.997L151.908 246.101L152.676 250.556L123.366 256.453Z" fill="#603BAF" stroke="#141414"/>
<path d="M125.778 269.373L125.011 265.005L200.189 250.116C200.478 251.547 200.2 252.821 199.502 253.984C197.632 254.652 193.996 255.575 189.109 256.676C184.089 257.807 177.779 259.12 170.778 260.53C162.507 262.195 153.278 263.995 144.072 265.79C137.863 267.001 131.665 268.209 125.778 269.373Z" fill="#603BAF" stroke="#141414"/>
<path d="M98.9356 255.956L80.438 259.89L83.3097 277.326L101.807 273.392L98.9356 255.956Z" fill="white"/>
<path fill-rule="evenodd" clip-rule="evenodd" d="M80.0478 259.644L99.2211 255.567L102.198 273.639L83.0243 277.717L80.0478 259.644ZM80.8284 260.137L83.5952 276.936L101.417 273.146L98.6503 256.347L80.8284 260.137Z" fill="#141414"/>
<path d="M84.0869 264.014C85.0343 265.93 87.7114 274.219 91.8144 270.741C92.754 269.949 93.3834 268.265 93.9978 267.247C95.1223 265.406 96.2468 263.566 97.3906 261.721C99.6397 258.04 101.905 254.337 104.154 250.656C104.74 249.702 101.168 248.524 100.446 249.719C98.4442 253 96.4423 256.28 94.4177 259.548C93.4168 261.188 92.4158 262.829 91.4149 264.469C90.7211 265.601 89.2635 269.093 88.0182 269.655C88.7543 269.707 89.5097 269.755 90.2424 269.789C90.8163 270.05 89.3752 267.55 89.3422 267.482C88.7547 266.296 88.1705 265.127 87.5637 263.945C87.1013 262.994 83.3707 262.574 84.0869 264.014Z" fill="#03824D"/>
<path d="M138.563 46.1873L141.742 62.8026L69.6216 79.7565L66.4428 63.1411C65.9481 60.5554 66.6219 57.9542 68.102 55.8334C68.2826 55.5747 68.4776 55.3173 68.6906 55.0758L68.6907 55.0759L68.6997 55.0652C70.1728 53.3039 72.2475 51.9703 74.6848 51.3973C76.6685 50.931 78.4713 50.0589 80.0308 48.8935L80.0308 48.8935L80.0338 48.8912C80.7027 48.3836 81.3224 47.8286 81.9079 47.2036L81.9096 47.2018C83.786 45.1795 85.0514 42.6311 85.3822 39.881L85.3823 39.8803C85.6894 37.2974 86.8977 34.9228 88.708 33.013L88.7082 33.0128C90.4011 31.2253 92.6825 29.8735 95.2455 29.271L99.7995 28.2005C102.38 27.5938 104.942 27.8062 107.185 28.671C109.513 29.5876 111.492 31.231 112.738 33.4527C114.069 35.8264 116.137 37.5925 118.594 38.5798L118.596 38.5806C119.33 38.8717 120.104 39.1198 120.929 39.2796C122.78 39.643 124.747 39.6289 126.731 39.1626C129.168 38.5896 131.552 38.875 133.544 39.8219L133.547 39.8234C136.1 41.0147 138.01 43.2958 138.563 46.1873Z" fill="#03824D" stroke="#141414"/>
<path d="M105.106 36.5547C105.662 39.4662 103.477 42.5491 100.08 43.3513C96.6825 44.1535 93.5613 42.3233 93.0062 39.4118C92.451 36.5003 94.6353 33.4173 98.0327 32.6151C101.43 31.813 104.551 33.6432 105.106 36.5547Z" fill="white" stroke="#141414"/>
</svg>
