<svg width="105" height="139" viewBox="0 0 105 139" fill="none" xmlns="http://www.w3.org/2000/svg">
<path d="M104.5 52.396C104.5 23.7353 81.2194 0.499512 52.4997 0.499512C23.78 0.499512 0.499641 23.7353 0.499756 52.396C0.499756 56.7374 1.09394 61.7795 2.30152 66.545C3.51058 71.3163 5.3252 75.7733 7.74313 78.9714L52.4997 138.17L97.2564 78.9714C102.608 71.8927 104.5 62.0259 104.5 52.396ZM29.9066 52.3959C29.9066 39.943 40.0245 29.8463 52.4997 29.8463C64.9749 29.8463 75.0928 39.943 75.0928 52.396C75.0928 64.849 64.9749 74.9456 52.4997 74.9456C40.0245 74.9456 29.9066 64.849 29.9066 52.3959Z" fill="#CCFF33" stroke="#141414"/>
<circle cx="52.9997" cy="51.9995" r="39.5" fill="#603BAF" stroke="#141414"/>
<path fill-rule="evenodd" clip-rule="evenodd" d="M57.3759 58.8039L67.3524 71.3096L53.2066 59.9205L39.0609 71.2352L49.1118 58.8039L26.9997 55.5286L48.6651 55.1564L30.4245 33.3458L51.3453 52.551L53.2066 24.4131L55.0679 52.551L75.9888 33.3458L57.8226 55.1564L79.4135 55.603L57.3759 58.8039Z" fill="#CCFF33"/>
</svg>
