<svg width="105" height="119" viewBox="0 0 105 119" fill="none" xmlns="http://www.w3.org/2000/svg">
<path fill-rule="evenodd" clip-rule="evenodd" d="M60.7523 69.6073L80.7053 94.6188L52.4138 71.8405L24.1223 94.4699L44.2241 69.6073L0 63.0567L43.3307 62.3123L6.84953 18.691L48.6912 57.1015L52.4138 0.825684L56.1364 57.1015L97.9781 18.691L61.6458 62.3123L104.828 63.2055L60.7523 69.6073Z" fill="#CCFF33"/>
<path d="M70 103.199V99.2496C62.2222 99.2496 55.6111 103.792 52.5 110.506C49.3889 103.792 42.7778 99.2496 35 99.2496V103.199C43.5556 103.199 50.5556 110.309 50.5556 118.998H54.4444C54.4444 110.309 61.4444 103.199 70 103.199Z" fill="#CCFF33"/>
<path d="M54.4444 64.998V111.099H50.5556V64.998H54.4444Z" fill="#CCFF33"/>
</svg>
