<svg width="90" height="90" viewBox="0 0 90 90" fill="none" xmlns="http://www.w3.org/2000/svg">
<circle cx="45" cy="45" r="22" fill="#CCFF33"/>
<path d="M45 90C20.1374 90 0 69.858 0 45.0101C0 20.1623 20.1374 0 45 0C69.8625 0 90 20.142 90 45.0101C89.9594 69.8377 69.822 89.9797 45 90ZM45 1.37931C20.9081 1.37931 1.39928 20.9128 1.39928 44.9899C1.39928 69.0669 20.9283 88.6004 45 88.6004C69.0717 88.6004 88.6007 69.0669 88.6007 44.9899C88.5804 20.9331 69.0717 1.41988 45 1.37931Z" fill="#141414"/>
<path d="M45 73.3874C29.324 73.3874 16.6291 60.6694 16.6291 45.0101C16.6291 29.3509 29.324 16.6126 45 16.6126C60.676 16.6126 73.3709 29.3306 73.3709 44.9899C73.3506 60.6694 60.6557 73.3671 45 73.3874ZM45 17.9919C30.0946 17.9919 18.0081 30.0811 18.0081 44.9899C18.0081 59.8986 30.0744 72.0081 45 72.0081C59.9256 72.0081 71.9919 59.9189 71.9919 45.0101C71.9716 30.1014 59.9054 18.0122 45 17.9919Z" fill="#141414"/>
<path d="M45 67.8499C32.3862 67.8499 22.1654 57.6268 22.1654 45.0101C22.1654 32.3935 32.3862 22.1704 45 22.1704C57.6138 22.1704 67.8346 32.3935 67.8346 45.0101C67.8143 57.6065 57.5935 67.8296 45 67.8499ZM45 23.5497C33.1568 23.5497 23.5444 33.1643 23.5444 45.0101C23.5444 56.856 33.1568 66.4706 45 66.4706C56.8432 66.4706 66.4556 56.856 66.4556 45.0101C66.4353 33.1643 56.8432 23.5497 45 23.5497Z" fill="#141414"/>
<path d="M26.7283 24.9087C26.5457 24.9087 26.3632 24.8276 26.2416 24.7059L14.3781 13.0223C14.0942 12.7789 14.0536 12.3327 14.3173 12.0487C14.5809 11.7647 15.0068 11.7241 15.2907 11.9878C15.311 12.0081 15.3312 12.0284 15.3515 12.0487L27.215 23.7525C27.4786 24.0162 27.4989 24.4625 27.215 24.7262C27.073 24.8479 26.9108 24.9087 26.7283 24.9087Z" fill="#141414"/>
<path d="M56.2145 87.6471C55.89 87.6471 55.6061 87.4036 55.5453 87.0791L52.4831 71.6024C52.402 71.2373 52.6453 70.8722 53.0306 70.7911C53.3957 70.7099 53.7607 70.9533 53.8418 71.3387L56.904 86.8154C56.9851 87.1805 56.7418 87.5456 56.3565 87.6268C56.3159 87.6471 56.2551 87.6471 56.2145 87.6471Z" fill="#141414"/>
<path d="M56.2145 20.3854C55.8292 20.3854 55.525 20.0811 55.525 19.6957C55.525 19.5943 55.5453 19.4929 55.5859 19.4118L62.5011 4.27992C62.6634 3.93509 63.0892 3.7931 63.434 3.95537C63.7584 4.11765 63.9207 4.50304 63.7584 4.84787L56.8432 19.9797C56.7418 20.2231 56.4984 20.3854 56.2145 20.3854Z" fill="#141414"/>
<path d="M89.2902 45.6998H72.6814C72.2961 45.6998 71.9919 45.3955 71.9919 45.0101C71.9919 44.6247 72.2961 44.3205 72.6814 44.3205H89.2902C89.6755 44.3205 89.9797 44.6247 89.9797 45.0101C89.9797 45.3955 89.6755 45.6998 89.2902 45.6998Z" fill="#141414"/>
<path d="M45 59.1075C40.9238 59.1075 37.598 55.8012 37.598 51.7038C37.598 51.3185 37.9022 51.0142 38.2875 51.0142C38.6728 51.0142 38.977 51.3185 38.977 51.7038C38.977 55.0304 41.6742 57.7282 45 57.7282C48.3258 57.7282 51.023 55.0304 51.023 51.7038C51.023 48.3773 48.3258 45.6795 45 45.6795C40.9036 45.6795 37.598 42.3732 37.598 38.2759C37.598 34.1785 40.9036 30.8722 45 30.8722C49.0964 30.8722 52.402 34.1785 52.402 38.2759C52.402 38.6613 52.0978 38.9655 51.7125 38.9655C51.3272 38.9655 51.023 38.6613 51.023 38.2759C51.023 34.9493 48.3258 32.2515 45 32.2515C41.6742 32.2515 38.977 34.9493 38.977 38.2759C38.977 41.6024 41.6742 44.3002 45 44.3002C49.0964 44.3002 52.402 47.6065 52.402 51.7038C52.402 55.8012 49.0964 59.1075 45 59.1075Z" fill="#141414"/>
<path d="M45 61.7444C44.6147 61.7444 44.3105 61.4402 44.3105 61.0548V28.9452C44.3105 28.5598 44.6147 28.2556 45 28.2556C45.3853 28.2556 45.6895 28.5598 45.6895 28.9452V61.0548C45.6895 61.4402 45.3853 61.7444 45 61.7444Z" fill="#141414"/>
</svg>
