<svg width="57" height="90" viewBox="0 0 57 90" fill="none" xmlns="http://www.w3.org/2000/svg">
<circle cx="28" cy="81" r="3" fill="#CCFF33"/>
<circle cx="28" cy="43" r="13" fill="#CCFF33"/>
<path d="M50.3245 90H5.90264C2.6572 90 0.020284 87.3631 0 84.0974V5.90264C0 2.63692 2.63692 0 5.90264 0H50.3448C53.5903 0 56.2272 2.63692 56.2475 5.90264V11.7241C56.2475 12.1095 55.9432 12.4138 55.5578 12.4138C55.1724 12.4138 54.8682 12.1095 54.8682 11.7241V5.90264C54.8682 3.40771 52.8398 1.39959 50.3651 1.39959H5.90264C3.40771 1.39959 1.39959 3.42799 1.39959 5.90264V84.1176C1.39959 86.6126 3.42799 88.6207 5.90264 88.6207H50.3448C52.8398 88.6207 54.8479 86.5923 54.8479 84.1176V74.1379C54.8479 73.7525 55.1521 73.4483 55.5375 73.4483C55.9229 73.4483 56.2272 73.7525 56.2272 74.1379V84.1176C56.2272 87.3631 53.5903 90 50.3245 90Z" fill="#141414"/>
<path d="M55.5375 74.8276H0.689655C0.30426 74.8276 0 74.5233 0 74.1379V11.7241C0 11.3387 0.30426 11.0345 0.689655 11.0345H55.5375C55.9229 11.0345 56.2272 11.3387 56.2272 11.7241V74.1379C56.2272 74.5233 55.9229 74.8276 55.5375 74.8276ZM1.37931 73.4483H54.8479V12.4138H1.37931V73.4483Z" fill="#141414"/>
<path d="M28.1136 84.9696C26.1663 84.9696 24.5842 83.3874 24.5842 81.4402C24.5842 79.4929 26.1663 77.9108 28.1136 77.9108C30.0609 77.9108 31.643 79.4929 31.643 81.4402C31.643 83.3874 30.0609 84.9696 28.1136 84.9696ZM28.1136 79.2901C26.9168 79.2901 25.9635 80.2434 25.9635 81.4402C25.9635 82.6369 26.9168 83.5903 28.1136 83.5903C29.3103 83.5903 30.2637 82.6369 30.2637 81.4402C30.2637 80.2434 29.3103 79.2901 28.1136 79.2901Z" fill="#141414"/>
<path d="M31.9878 6.77485H24.2596C23.8742 6.77485 23.57 6.47059 23.57 6.08519C23.57 5.6998 23.8742 5.39554 24.2596 5.39554H31.9878C32.3732 5.39554 32.6775 5.6998 32.6775 6.08519C32.6775 6.47059 32.3732 6.77485 31.9878 6.77485Z" fill="#141414"/>
<path d="M12.7586 46.3286C12.4746 46.3286 12.2312 46.1663 12.1095 45.9026C12.0284 45.7404 12.0284 45.5375 12.1095 45.3753C12.1501 45.2941 12.1907 45.213 12.2718 45.1521C12.3327 45.0913 12.4138 45.0304 12.4949 44.9899C12.6166 44.9493 12.7586 44.929 12.9006 44.9493C12.9412 44.9493 12.9817 44.9696 13.0223 44.9899C13.0629 45.0101 13.1034 45.0304 13.144 45.0507C13.1846 45.071 13.2252 45.1116 13.2454 45.1318C13.3063 45.1927 13.3671 45.2738 13.4077 45.355C13.4686 45.5172 13.4686 45.7201 13.4077 45.8824C13.3671 45.9635 13.3266 46.0446 13.2454 46.1055C13.1237 46.2475 12.9412 46.3286 12.7586 46.3286Z" fill="#141414"/>
<path d="M14.6045 51.4199C14.5233 51.4199 14.4219 51.3996 14.3408 51.359C14.2596 51.3185 14.1785 51.2779 14.1176 51.1968C14.0568 51.1359 13.9959 51.0548 13.9554 50.9736C13.9148 50.8925 13.9148 50.7911 13.9148 50.7099C13.9148 50.6694 13.9148 50.6085 13.9351 50.568C13.9351 50.5274 13.9554 50.4868 13.9757 50.4462C13.9959 50.4057 14.0162 50.3651 14.0365 50.3245C14.0568 50.284 14.0974 50.2637 14.1176 50.2231C14.1582 50.1826 14.1785 50.1623 14.2191 50.142C14.2596 50.1217 14.3002 50.1014 14.3408 50.0811C14.3813 50.0608 14.4219 50.0608 14.4625 50.0406C14.6045 50.0203 14.7465 50.0203 14.8682 50.0811C14.9493 50.1217 15.0304 50.1623 15.0913 50.2434L15.1724 50.3448C15.1927 50.3854 15.213 50.426 15.2333 50.4665C15.2535 50.5071 15.2738 50.5477 15.2738 50.5882C15.2738 50.6288 15.2941 50.6897 15.2941 50.7302C15.2941 50.8114 15.2738 50.9128 15.2333 50.9939C15.1927 51.075 15.1521 51.1562 15.0913 51.217C14.9696 51.3387 14.8073 51.4199 14.6045 51.4199Z" fill="#141414"/>
<path d="M18.0933 55.5578C17.9919 55.5578 17.9107 55.5375 17.8296 55.497C17.6673 55.4158 17.5254 55.2941 17.4645 55.1318C17.4037 54.9696 17.4037 54.7667 17.4645 54.6045C17.5051 54.5233 17.5456 54.4422 17.6268 54.3813C17.8905 54.1176 18.3164 54.0974 18.5801 54.3611L18.6004 54.3813C18.6613 54.4422 18.7221 54.5233 18.7627 54.6045C18.8032 54.6856 18.8032 54.787 18.8032 54.8682C18.8032 55.0507 18.7424 55.2333 18.6004 55.355C18.5396 55.4158 18.4584 55.4767 18.3773 55.5172C18.2759 55.5375 18.1947 55.5578 18.0933 55.5578Z" fill="#141414"/>
<path d="M22.7789 58.2759C22.6978 58.2759 22.5963 58.2556 22.5152 58.215C22.4341 58.1744 22.3529 58.1339 22.2921 58.0527C22.2312 57.9919 22.1704 57.9107 22.1298 57.8296C22.0892 57.7485 22.0892 57.6471 22.0892 57.5659C22.0892 57.4848 22.1095 57.3834 22.1501 57.3022C22.1907 57.2211 22.2312 57.14 22.2921 57.0791C22.3529 57.0183 22.4341 56.9574 22.5152 56.9168C22.6369 56.8763 22.7789 56.856 22.9006 56.8763C22.9412 56.8763 22.9817 56.8965 23.0223 56.9168C23.0629 56.9371 23.1034 56.9574 23.144 56.9777C23.1846 56.998 23.2252 57.0182 23.2454 57.0588C23.3671 57.1805 23.4483 57.3631 23.4483 57.5456C23.4483 57.6268 23.428 57.7282 23.3874 57.8093C23.3063 57.9716 23.1846 58.1136 23.0223 58.1744C22.9615 58.2556 22.8803 58.2759 22.7789 58.2759Z" fill="#141414"/>
<path d="M28.1136 59.2089C27.8296 59.2089 27.5862 59.0466 27.4848 58.783C27.4442 58.7018 27.4239 58.6004 27.4239 58.5193C27.4239 58.4381 27.4442 58.3367 27.4848 58.2556C27.5254 58.1744 27.5659 58.0933 27.6268 58.0325C27.6876 57.9716 27.7688 57.9107 27.8499 57.8905C27.9716 57.8296 28.1136 57.8296 28.2556 57.8499C28.2961 57.8499 28.3367 57.8702 28.3773 57.8905C28.4178 57.9107 28.4584 57.931 28.499 57.9513C28.5396 57.9716 28.5598 58.0122 28.6004 58.0325C28.6613 58.0933 28.7221 58.1744 28.7424 58.2556C28.783 58.3367 28.8032 58.4381 28.8032 58.5193C28.8032 58.6207 28.783 58.7018 28.7424 58.783C28.641 59.0466 28.3976 59.2089 28.1136 59.2089Z" fill="#141414"/>
<path d="M33.4483 58.2759C33.3671 58.2759 33.2657 58.2556 33.1846 58.215C33.002 58.1542 32.8803 58.0122 32.8195 57.8499C32.7789 57.7688 32.7586 57.6673 32.7586 57.5862C32.7586 57.5456 32.7586 57.4848 32.7789 57.4442C32.7789 57.4037 32.7992 57.3631 32.8195 57.3225C32.8398 57.2819 32.86 57.2414 32.8803 57.2008C32.9006 57.1602 32.9412 57.14 32.9615 57.0994C33.002 57.0588 33.0426 57.0385 33.0629 57.0183C33.1034 56.998 33.144 56.9777 33.1846 56.9574C33.2252 56.9371 33.2657 56.9168 33.3063 56.9168C33.4483 56.8965 33.5903 56.8965 33.712 56.9574C33.7931 56.998 33.8742 57.0385 33.9351 57.0994C33.9554 57.14 33.9959 57.1602 34.0162 57.2008C34.0365 57.2414 34.0568 57.2819 34.0771 57.3225C34.0974 57.3631 34.1176 57.4037 34.1176 57.4442C34.1379 57.4848 34.1379 57.5456 34.1379 57.5862C34.1379 57.6673 34.1176 57.7688 34.0974 57.8499C34.0568 57.931 34.0162 58.0122 33.9351 58.073C33.8742 58.1339 33.7931 58.1744 33.712 58.215C33.6308 58.2556 33.5294 58.2759 33.4483 58.2759Z" fill="#141414"/>
<path d="M38.1339 55.5578C38.0325 55.5578 37.9513 55.5375 37.8702 55.497C37.7079 55.4158 37.5659 55.2941 37.5051 55.1318C37.4645 55.0507 37.4442 54.9493 37.4442 54.8682C37.4442 54.8276 37.4442 54.7667 37.4645 54.7262C37.4645 54.6856 37.4848 54.645 37.5051 54.6045L37.5659 54.4828C37.5862 54.4422 37.6268 54.4219 37.6471 54.3813C37.8093 54.2191 38.0527 54.1582 38.2759 54.1988C38.3164 54.1988 38.357 54.2191 38.3976 54.2393C38.4381 54.2596 38.4787 54.2799 38.5193 54.3002C38.5598 54.3205 38.6004 54.3611 38.6207 54.3813C38.6613 54.4219 38.6815 54.4422 38.7018 54.4828C38.7221 54.5233 38.7424 54.5639 38.7627 54.6045C38.783 54.645 38.783 54.6856 38.8032 54.7262C38.8235 54.7667 38.8235 54.8276 38.8235 54.8682C38.8235 54.9493 38.8032 55.0507 38.783 55.1318C38.7424 55.213 38.7018 55.2941 38.6207 55.355C38.5598 55.4158 38.4787 55.4767 38.3976 55.5172C38.3164 55.5375 38.2353 55.5578 38.1339 55.5578Z" fill="#141414"/>
<path d="M41.6227 51.4199C41.4402 51.4199 41.2576 51.3387 41.1359 51.217C41.0751 51.1562 41.0142 51.075 40.9939 50.9939C40.9533 50.9128 40.9331 50.8114 40.9331 50.7302C40.9331 50.6897 40.9331 50.6288 40.9533 50.5882C40.9533 50.5477 40.9736 50.5071 40.9939 50.4665C41.0142 50.426 41.0345 50.3854 41.0548 50.3448L41.1359 50.2434C41.3387 50.0406 41.6227 49.9797 41.8864 50.0811C41.9675 50.1217 42.0487 50.1623 42.1095 50.2434L42.1907 50.3448C42.211 50.3854 42.2312 50.426 42.2515 50.4665C42.2718 50.5071 42.2921 50.5477 42.2921 50.5882C42.2921 50.6288 42.3124 50.6897 42.3124 50.7302C42.3124 50.9128 42.2515 51.0953 42.1095 51.217C41.9675 51.3387 41.8053 51.4199 41.6227 51.4199Z" fill="#141414"/>
<path d="M43.4686 46.3286C43.1846 46.3286 42.9412 46.1663 42.8195 45.9026C42.7789 45.8215 42.7586 45.7201 42.7586 45.6389C42.7586 45.4564 42.8398 45.2738 42.9615 45.1521C43.0223 45.0913 43.1034 45.0304 43.1846 45.0101C43.5294 44.8682 43.9351 45.0304 44.0974 45.3753C44.1379 45.4564 44.1582 45.5578 44.1582 45.6389C44.1582 45.7201 44.1379 45.8215 44.0974 45.9026C44.0568 45.9838 44.0162 46.0649 43.9351 46.1258C43.8337 46.2475 43.6511 46.3286 43.4686 46.3286Z" fill="#141414"/>
<path d="M43.4686 40.9128C43.286 40.9128 43.1237 40.8316 42.9817 40.7099C42.7789 40.5071 42.7383 40.2231 42.8195 39.9594C42.86 39.8783 42.9006 39.7972 42.9817 39.7363C43.0223 39.6957 43.0426 39.6755 43.0832 39.6552C43.1237 39.6349 43.1643 39.6146 43.2049 39.5943C43.2454 39.574 43.286 39.5537 43.3266 39.5537C43.4077 39.5335 43.5091 39.5335 43.5903 39.5537C43.6308 39.5537 43.6714 39.574 43.712 39.5943C43.7525 39.6146 43.7931 39.6349 43.8337 39.6552C43.8742 39.6755 43.9148 39.6957 43.9351 39.7363C43.9959 39.7972 44.0568 39.8783 44.0974 39.9594C44.1785 40.1217 44.1785 40.3245 44.0974 40.4868C44.0568 40.568 44.0162 40.6491 43.9351 40.7099C43.8337 40.8519 43.6511 40.9128 43.4686 40.9128Z" fill="#141414"/>
<path d="M41.6227 35.8215C41.5416 35.8215 41.4402 35.8012 41.359 35.7606C41.2779 35.7201 41.1968 35.6795 41.1359 35.6187C41.0142 35.497 40.9331 35.3144 40.9331 35.1318C40.9331 35.0913 40.9331 35.0304 40.9533 34.9899C40.9533 34.9493 40.9736 34.9087 40.9939 34.8682C41.0142 34.8276 41.0345 34.787 41.0548 34.7464C41.075 34.7059 41.1156 34.6653 41.1359 34.645C41.1968 34.5842 41.2779 34.5436 41.359 34.503C41.5213 34.4219 41.7241 34.4219 41.8864 34.503C41.9675 34.5436 42.0487 34.5842 42.1095 34.645C42.1298 34.6856 42.1704 34.7059 42.1907 34.7464C42.211 34.787 42.2312 34.8276 42.2515 34.8682C42.2718 34.9087 42.2921 34.9493 42.2921 34.9899C42.2921 35.0304 42.3124 35.0913 42.3124 35.1318C42.3124 35.3144 42.2515 35.497 42.1095 35.6187C42.0487 35.6795 41.9675 35.7404 41.8864 35.7606C41.785 35.8012 41.7038 35.8215 41.6227 35.8215Z" fill="#141414"/>
<path d="M38.1339 31.6836C38.0325 31.6836 37.9513 31.6633 37.8702 31.6227C37.789 31.5821 37.7079 31.5416 37.6471 31.4807C37.5862 31.4199 37.5254 31.3387 37.4848 31.2576C37.4442 31.1765 37.4442 31.0751 37.4442 30.9939C37.4442 30.9533 37.4442 30.8925 37.4645 30.8519C37.4645 30.8114 37.4848 30.7708 37.5051 30.7302L37.5659 30.6085C37.5862 30.5679 37.6268 30.5477 37.6471 30.5071C37.8093 30.3448 38.0527 30.2637 38.2759 30.3245C38.3164 30.3245 38.357 30.3448 38.3976 30.3651C38.4381 30.3854 38.4787 30.4057 38.5193 30.426C38.5598 30.4462 38.6004 30.4868 38.6207 30.5071C38.6613 30.5477 38.6815 30.5679 38.7018 30.6085L38.7627 30.7302L38.8032 30.8519C38.8032 30.8925 38.8235 30.9533 38.8235 30.9939C38.8235 31.1765 38.7424 31.359 38.6207 31.4807C38.499 31.6024 38.3164 31.6836 38.1339 31.6836Z" fill="#141414"/>
<path d="M29.9189 43.144H25.2333C24.8479 43.144 24.5436 42.8398 24.5436 42.4544V35.3753C24.5436 34.9899 24.8479 34.6856 25.2333 34.6856H29.9189C32.2515 34.6856 34.1582 36.572 34.1582 38.9249C34.1582 41.2779 32.2515 43.144 29.9189 43.144ZM25.9229 41.7647H29.9189C31.4807 41.7647 32.7586 40.4868 32.7586 38.9249C32.7586 37.3631 31.4807 36.0852 29.9189 36.0852H25.9229V41.7647Z" fill="#141414"/>
<path d="M30.6288 51.1765H25.2333C24.8479 51.1765 24.5436 50.8722 24.5436 50.4868V42.4544C24.5436 42.069 24.8479 41.7647 25.2333 41.7647H30.6288C33.2252 41.7647 35.3347 43.8742 35.3347 46.4706C35.3347 49.0669 33.2252 51.1765 30.6288 51.1765ZM25.9229 49.7972H30.6288C32.4544 49.7972 33.9554 48.3164 33.9554 46.4706C33.9554 44.645 32.4746 43.144 30.6288 43.144H25.9229V49.7972Z" fill="#141414"/>
<path d="M26.5923 36.0649C26.2069 36.0649 25.9026 35.7606 25.9026 35.3753V34.0568C25.9026 33.6714 26.2069 33.3671 26.5923 33.3671C26.9777 33.3671 27.2819 33.6714 27.2819 34.0568V35.3753C27.2819 35.7606 26.9777 36.0649 26.5923 36.0649Z" fill="#141414"/>
<path d="M25.2333 36.0649H23.9148C23.5294 36.0649 23.2252 35.7606 23.2252 35.3753C23.2252 34.9899 23.5294 34.6856 23.9148 34.6856H25.2333C25.6187 34.6856 25.9229 34.9899 25.9229 35.3753C25.9229 35.7606 25.5984 36.0649 25.2333 36.0649Z" fill="#141414"/>
<path d="M25.2333 51.1765H23.9148C23.5294 51.1765 23.2252 50.8722 23.2252 50.4868C23.2252 50.1014 23.5294 49.7972 23.9148 49.7972H25.2333C25.6187 49.7972 25.9229 50.1014 25.9229 50.4868C25.9229 50.8722 25.5984 51.1765 25.2333 51.1765Z" fill="#141414"/>
<path d="M28.3976 36.0649C28.0122 36.0649 27.7079 35.7606 27.7079 35.3753V34.0568C27.7079 33.6714 28.0122 33.3671 28.3976 33.3671C28.783 33.3671 29.0872 33.6714 29.0872 34.0568V35.3753C29.0872 35.7606 28.783 36.0649 28.3976 36.0649Z" fill="#141414"/>
<path d="M26.5923 52.4949C26.2069 52.4949 25.9026 52.1907 25.9026 51.8053V50.4868C25.9026 50.1014 26.2069 49.7972 26.5923 49.7972C26.9777 49.7972 27.2819 50.1014 27.2819 50.4868V51.8053C27.2819 52.1907 26.9777 52.4949 26.5923 52.4949Z" fill="#141414"/>
<path d="M28.3976 52.4949C28.0122 52.4949 27.7079 52.1907 27.7079 51.8053V50.4868C27.7079 50.1014 28.0122 49.7972 28.3976 49.7972C28.783 49.7972 29.0872 50.1014 29.0872 50.4868V51.8053C29.0872 52.1907 28.783 52.4949 28.3976 52.4949Z" fill="#141414"/>
<path d="M28.1136 61.3793C17.9108 61.3793 9.65517 53.1237 9.65517 42.9209C9.65517 32.7181 17.9108 24.4625 28.1136 24.4625C38.3164 24.4625 46.572 32.7181 46.572 42.9209C46.572 53.1237 38.2961 61.3793 28.1136 61.3793ZM28.1136 25.8621C18.6815 25.8621 11.0345 33.5091 11.0345 42.9412C11.0345 52.3732 18.6815 60.0203 28.1136 60.0203C37.5456 60.0203 45.1927 52.3732 45.1927 42.9412C45.1724 33.5091 37.5456 25.8621 28.1136 25.8621Z" fill="#141414"/>
<path d="M28.1136 56.8965C20.3854 56.8965 14.1379 50.6288 14.1379 42.9209C14.1379 35.1927 20.4057 28.9452 28.1136 28.9452C35.8418 28.9452 42.0892 35.1927 42.0892 42.9209C42.0892 50.6491 35.8215 56.8965 28.1136 56.8965ZM28.1136 30.3448C21.1562 30.3448 15.5172 35.9838 15.5172 42.9412C15.5172 49.8986 21.1562 55.5375 28.1136 55.5375C35.071 55.5375 40.7099 49.8986 40.7099 42.9412C40.6897 35.9838 35.071 30.3448 28.1136 30.3448Z" fill="#141414"/>
<path d="M28.1136 28.0325C28.0325 28.0325 27.931 28.0122 27.8499 27.9919C27.7688 27.9513 27.6876 27.9107 27.6268 27.8296C27.5659 27.7688 27.5051 27.6876 27.4848 27.6065C27.4442 27.5254 27.4239 27.4239 27.4239 27.3428C27.4239 27.3022 27.4239 27.2617 27.4442 27.2211C27.4442 27.1805 27.4645 27.14 27.4848 27.0791C27.5254 26.998 27.5659 26.9168 27.6268 26.856C27.8905 26.5923 28.3367 26.5923 28.6004 26.856C28.641 26.8965 28.6613 26.9168 28.6815 26.9574C28.7018 26.998 28.7221 27.0385 28.7424 27.0791C28.7627 27.1197 28.783 27.1602 28.783 27.2211C28.783 27.2617 28.8032 27.3022 28.8032 27.3428C28.8032 27.7079 28.499 28.0325 28.1136 28.0325Z" fill="#141414"/>
<path d="M22.7789 28.9655C22.5963 28.9655 22.4138 28.9047 22.2921 28.7627C22.2312 28.7018 22.1907 28.6207 22.1501 28.5396C22.069 28.3773 22.069 28.1744 22.1501 28.0122C22.1907 27.931 22.2312 27.8499 22.2921 27.789C22.4949 27.5862 22.7789 27.5254 23.0426 27.6471C23.1237 27.6876 23.2049 27.7282 23.2657 27.789C23.3874 27.931 23.4686 28.0933 23.4686 28.2759C23.4686 28.4584 23.3874 28.641 23.2657 28.7627C23.2049 28.8235 23.1237 28.8641 23.0426 28.9047C22.9615 28.9452 22.8803 28.9655 22.7789 28.9655Z" fill="#141414"/>
<path d="M18.0933 31.6836C17.7079 31.6836 17.4037 31.3793 17.4037 30.9939C17.4037 30.9533 17.4037 30.8925 17.4037 30.8519L17.4442 30.7302L17.5051 30.6085C17.5254 30.5679 17.5659 30.5477 17.5862 30.5071C17.6268 30.4868 17.6471 30.4462 17.6876 30.426C17.7282 30.4057 17.7688 30.3854 17.8093 30.3651C17.8499 30.3448 17.8905 30.3245 17.931 30.3245C18.1542 30.284 18.3976 30.3448 18.5598 30.5071C18.6004 30.5477 18.6207 30.5679 18.641 30.6085C18.6613 30.6491 18.6815 30.6897 18.7018 30.7302C18.7221 30.7708 18.7424 30.8114 18.7424 30.8519C18.7424 30.8925 18.7627 30.9533 18.7627 30.9939C18.7627 31.1765 18.6815 31.359 18.5598 31.4807C18.499 31.5416 18.4178 31.6024 18.3367 31.6227C18.2759 31.6633 18.1744 31.6836 18.0933 31.6836Z" fill="#141414"/>
<path d="M14.6045 35.8215C14.2191 35.8215 13.9148 35.5172 13.9148 35.1521C13.9148 35.1521 13.9148 35.1521 13.9148 35.1318C13.9148 34.9493 13.9959 34.7667 14.1176 34.645C14.2799 34.4828 14.5233 34.4219 14.7464 34.4625C14.787 34.4625 14.8276 34.4828 14.8682 34.503C14.9087 34.5233 14.9493 34.5436 14.9899 34.5639C15.0304 34.5842 15.071 34.6247 15.0913 34.645C15.213 34.787 15.2941 34.9493 15.2941 35.1318C15.2941 35.3144 15.213 35.497 15.0913 35.6187C14.9696 35.7606 14.8073 35.8215 14.6045 35.8215Z" fill="#141414"/>
<path d="M12.7586 40.9128C12.6775 40.9128 12.5761 40.8925 12.4949 40.8519C12.4138 40.8114 12.3327 40.7708 12.2718 40.6897C12.1501 40.568 12.069 40.3854 12.069 40.2028C12.069 40.1217 12.0892 40.0203 12.1095 39.9391C12.1501 39.858 12.1907 39.7769 12.2718 39.716C12.2921 39.6755 12.3327 39.6552 12.3732 39.6349C12.4138 39.6146 12.4544 39.5943 12.4949 39.574C12.5355 39.5538 12.5761 39.5335 12.6166 39.5335C12.6978 39.5132 12.7992 39.5132 12.8803 39.5335C12.9209 39.5335 12.9615 39.5538 13.002 39.574C13.0426 39.5943 13.0832 39.6146 13.1237 39.6349C13.1643 39.6552 13.1846 39.6957 13.2252 39.716C13.286 39.7769 13.3469 39.858 13.3874 39.9391C13.4483 40.1014 13.4483 40.3043 13.3874 40.4665C13.3469 40.5477 13.3063 40.6288 13.2252 40.6897C13.1643 40.7505 13.0832 40.8114 13.002 40.8519C12.9412 40.8925 12.86 40.9128 12.7586 40.9128Z" fill="#141414"/>
<path d="M33.4483 28.9655C33.3671 28.9655 33.2657 28.9452 33.1846 28.9047C33.1034 28.8641 33.0223 28.8235 32.9615 28.7627C32.8195 28.641 32.7586 28.4584 32.7586 28.2759C32.7586 28.0933 32.8398 27.9107 32.9615 27.789C33.2252 27.5254 33.6714 27.5254 33.9351 27.789C33.9959 27.8499 34.0568 27.931 34.0974 28.0122C34.1582 28.1744 34.1582 28.3773 34.0974 28.5396C34.0568 28.6207 34.0162 28.7018 33.9351 28.7627C33.8134 28.9047 33.6308 28.9655 33.4483 28.9655Z" fill="#141414"/>
<path d="M4.52333 71.3793C4.13793 71.3793 3.83367 71.0751 3.83367 70.6897V59.4929C3.83367 59.1075 4.13793 58.8032 4.52333 58.8032C4.90872 58.8032 5.21298 59.1075 5.21298 59.4929V70.6897C5.21298 71.0548 4.90872 71.3793 4.52333 71.3793Z" fill="#141414"/>
<path d="M4.52333 55.5578C4.13793 55.5578 3.83367 55.2535 3.83367 54.8682V30.4057C3.83367 30.0203 4.13793 29.716 4.52333 29.716C4.90872 29.716 5.21298 30.0203 5.21298 30.4057V54.8682C5.21298 55.2535 4.90872 55.5578 4.52333 55.5578Z" fill="#141414"/>
</svg>
