<svg width="90" height="90" viewBox="0 0 90 90" fill="none" xmlns="http://www.w3.org/2000/svg">
<circle cx="22" cy="32" r="4" fill="#CCFF33"/>
<circle cx="36" cy="68" r="4" fill="#CCFF33"/>
<ellipse cx="70" cy="12" rx="10" ry="11" fill="#CCFF33"/>
<path d="M70.2886 84.9493C69.9013 84.9493 69.5956 84.6451 69.5956 84.2597V67.4445C69.5956 67.0591 69.9013 66.7548 70.2886 66.7548C70.6759 66.7548 70.9817 67.0591 70.9817 67.4445V84.2597C71.0021 84.6451 70.6759 84.9493 70.2886 84.9493Z" fill="#141414"/>
<path d="M59.1589 63.3472C58.7716 63.3472 58.4659 63.0429 58.4659 62.6575V47.9721C58.4659 47.5867 58.7716 47.2824 59.1589 47.2824C59.5462 47.2824 59.852 47.5867 59.852 47.9721V62.6575C59.852 63.0429 59.5462 63.3472 59.1589 63.3472Z" fill="#141414"/>
<path d="M70.2886 84.9493C69.9013 84.9493 69.5956 84.6451 69.5956 84.2597V67.4445C69.5956 67.0591 69.9013 66.7548 70.2886 66.7548C70.6759 66.7548 70.9817 67.0591 70.9817 67.4445V84.2597C71.0021 84.6451 70.6759 84.9493 70.2886 84.9493Z" fill="#141414"/>
<path d="M81.4387 63.3472C81.0514 63.3472 80.7456 63.0429 80.7456 62.6575V47.9721C80.7456 47.5867 81.0514 47.2824 81.4387 47.2824C81.826 47.2824 82.1318 47.5867 82.1318 47.9721V62.6575C82.1318 63.0429 81.826 63.3472 81.4387 63.3472Z" fill="#141414"/>
<path d="M75.3846 90C73.2647 90 71.3078 88.8438 70.309 86.9777C69.2898 88.8438 67.3533 90 65.2334 90C61.5031 90 58.4863 86.998 58.4863 83.2861V65.8826C57.6505 66.6737 56.5702 67.0996 55.4287 67.0996H55.1229C52.6564 67.0996 50.6588 65.1118 50.6588 62.6575V35.883C50.6588 29.453 55.9179 24.2401 62.3796 24.2401C62.5835 24.2401 62.7873 24.3415 62.93 24.5038L70.3294 33.8546L77.7288 24.5038C77.8511 24.3415 78.0549 24.2401 78.2792 24.2401C84.7409 24.2401 89.9796 29.453 90 35.883V62.6778C90 65.1321 88.0024 67.1199 85.5359 67.1199H85.2097C84.0682 67.1199 82.9675 66.694 82.1521 65.9029V83.3064C82.1318 86.998 79.1149 90 75.3846 90ZM71.0021 84.2597C71.0021 86.6735 72.9589 88.6207 75.3846 88.6207C78.3403 88.6207 80.7456 86.2272 80.7456 83.2861V62.6575C80.7456 62.2721 81.0514 61.9679 81.4387 61.9679C81.826 61.9679 82.1318 62.2721 82.1318 62.6575C82.1318 64.3411 83.4975 65.7001 85.1894 65.7001H85.4951C87.187 65.7001 88.5527 64.3411 88.5527 62.6575V35.883C88.5527 30.3455 84.1294 25.8019 78.5646 25.6194L70.839 35.3962C70.574 35.7004 70.1256 35.741 69.8198 35.4773C69.7994 35.457 69.7586 35.4367 69.7383 35.3962L62.0127 25.6194C56.4479 25.8019 52.0245 30.3455 52.0245 35.883V62.6778C52.0245 64.3613 53.3903 65.7204 55.0821 65.7204H55.3879C57.0798 65.7204 58.4455 64.3613 58.4455 62.6778C58.4455 62.2924 58.7513 61.9881 59.1386 61.9881C59.5259 61.9881 59.8316 62.2924 59.8316 62.6778V83.3064C59.8316 86.2475 62.2369 88.641 65.1926 88.641C67.6183 88.641 69.5752 86.6937 69.5752 84.28C69.5752 83.8946 69.881 83.5903 70.2682 83.5903C70.6555 83.5903 71.0021 83.8743 71.0021 84.2597Z" fill="#141414"/>
<path d="M70.309 23.7736C64.3773 23.7736 59.5462 18.4389 59.5462 11.8873C59.5462 5.33565 64.3569 0.00102261 70.309 0.00102261C76.2612 0.00102261 81.0718 5.33565 81.0718 11.8873C81.0718 18.4389 76.2408 23.7736 70.309 23.7736ZM70.309 1.38032C65.1518 1.38032 60.9324 6.08615 60.9324 11.8873C60.9324 17.6884 65.1315 22.3943 70.309 22.3943C75.4866 22.3943 79.6857 17.6884 79.6857 11.8873C79.6857 6.08615 75.4662 1.38032 70.309 1.38032Z" fill="#141414"/>
<path d="M22.6104 29.0676C22.2231 29.0676 21.9173 28.7634 21.9173 28.378C21.9173 28.3374 21.9173 28.2766 21.9377 28.236C22.4269 25.9845 23.0588 23.7736 23.7926 21.6032C28.216 8.47963 36.0027 0.406698 44.5843 0.00102261C44.9513 -0.0192611 45.2774 0.264711 45.3182 0.629819V0.650102C45.3386 1.03549 45.0328 1.36003 44.6659 1.38032C36.6753 1.74542 29.3779 9.47353 25.138 22.0292C24.4245 24.159 23.813 26.3293 23.3238 28.52C23.2219 28.8242 22.9365 29.0676 22.6104 29.0676Z" fill="#141414"/>
<path d="M44.6047 90H44.564C35.9823 89.5943 28.216 81.5417 23.7722 68.4181C21.3058 60.8523 20.0827 52.9416 20.1439 44.9904C20.1439 42.0898 20.307 39.2095 20.6127 36.3292C20.6535 35.9438 21 35.6801 21.3873 35.7207C21.7746 35.7613 22.0396 36.1061 21.9988 36.4915C21.6931 39.3109 21.5504 42.1709 21.5504 45.0107C21.4892 52.8199 22.7123 60.5683 25.138 67.9921C29.3575 80.5275 36.655 88.2353 44.6455 88.6207C45.0328 88.6207 45.3386 88.9452 45.3182 89.3306C45.3182 89.6957 44.992 90 44.6047 90Z" fill="#141414"/>
<path d="M45.2366 90C45.0124 90 44.7882 90 44.564 89.9797C19.6139 89.6349 -0.342083 69.2092 0.00444555 44.3616C0.350974 20.0008 20.1235 0.345846 44.5843 0.0213064C44.8086 0.00102261 45.0124 0.00102261 45.2366 0.00102261C45.6239 0.00102261 45.9297 0.305279 45.9297 0.69067V89.3103C45.9297 89.6957 45.6239 90 45.2366 90ZM44.5436 1.4006C20.3477 1.78599 1.04403 21.6235 1.43133 45.7003C1.79824 69.2497 20.8777 88.2353 44.5436 88.6207V1.4006Z" fill="#141414"/>
<path d="M45.2366 45.7003H0.697503C0.310206 45.7003 0.00444555 45.396 0.00444555 45.0107C0.00444555 44.6253 0.310206 44.321 0.697503 44.321H45.2366C45.6239 44.321 45.9297 44.6253 45.9297 45.0107C45.9297 45.396 45.6239 45.7003 45.2366 45.7003Z" fill="#141414"/>
<path d="M45.2366 22.4957H7.30193C6.91464 22.4957 6.60888 22.1914 6.60888 21.806C6.60888 21.4207 6.91464 21.1164 7.30193 21.1164H45.257C45.6443 21.1164 45.9501 21.4207 45.9501 21.806C45.9297 22.1914 45.6239 22.4957 45.2366 22.4957Z" fill="#141414"/>
<path d="M32.252 68.8846H7.30193C6.91464 68.8846 6.60888 68.5804 6.60888 68.195C6.60888 67.8096 6.91464 67.5053 7.30193 67.5053H32.252C32.6393 67.5053 32.9451 67.8096 32.9451 68.195C32.9451 68.5804 32.6393 68.8846 32.252 68.8846Z" fill="#141414"/>
<path d="M45.2366 68.8846H40.4464C40.0591 68.8846 39.7533 68.5804 39.7533 68.195C39.7533 67.8096 40.0591 67.5053 40.4464 67.5053H45.2366C45.6239 67.5053 45.9297 67.8096 45.9297 68.195C45.9297 68.5804 45.6239 68.8846 45.2366 68.8846Z" fill="#141414"/>
<path d="M22.1619 37.2014C19.512 37.2014 17.3717 35.0716 17.3717 32.4347C17.3717 29.7978 19.512 27.668 22.1619 27.668C24.8118 27.668 26.9522 29.7978 26.9522 32.4347C26.9725 35.0513 24.8118 37.1811 22.1619 37.2014ZM22.1619 29.0271C20.2866 29.0271 18.7578 30.5483 18.7578 32.4144C18.7578 34.2806 20.2866 35.8018 22.1619 35.8018C24.0372 35.8018 25.566 34.2806 25.566 32.4144C25.566 30.5483 24.0576 29.0271 22.1619 29.0271Z" fill="#141414"/>
<path d="M36.3492 72.9819C33.6993 72.9819 31.5589 70.8521 31.5589 68.2153C31.5589 65.5784 33.6993 63.4486 36.3492 63.4486C38.9991 63.4486 41.1394 65.5784 41.1394 68.2153C41.1598 70.8319 38.9991 72.9819 36.3492 72.9819ZM36.3492 64.8076C34.4739 64.8076 32.9451 66.3289 32.9451 68.195C32.9451 70.0611 34.4739 71.5824 36.3492 71.5824C38.2245 71.5824 39.7533 70.0611 39.7533 68.195C39.7533 66.3289 38.2449 64.8076 36.3492 64.8076Z" fill="#141414"/>
</svg>
