<svg width="90" height="90" viewBox="0 0 90 90" fill="none" xmlns="http://www.w3.org/2000/svg">
<rect x="1" y="51" width="14" height="36" fill="#CCFF33"/>
<circle cx="50" cy="15" r="14" fill="#CCFF33"/>
<path d="M49.8492 53.648C49.464 53.648 49.1599 53.3437 49.1599 52.9584V28.5784C49.1599 28.1931 49.464 27.8888 49.8492 27.8888C50.2343 27.8888 50.5384 28.1931 50.5384 28.5784V52.9584C50.5384 53.3437 50.2343 53.648 49.8492 53.648Z" fill="#141414"/>
<path d="M49.5654 29.2883C41.4768 29.2883 34.9289 22.737 34.9289 14.6442C34.9289 6.55134 41.4768 0 49.5654 0C57.6539 0 64.2018 6.55134 64.2018 14.6442C64.2018 22.737 57.6539 29.2883 49.5654 29.2883ZM49.5654 1.37923C42.2471 1.37923 36.3074 7.32209 36.3074 14.6442C36.3074 21.9663 42.2471 27.9091 49.5654 27.9091C56.8836 27.9091 62.8233 21.9663 62.8233 14.6442C62.8233 7.32209 56.8836 1.39951 49.5654 1.37923Z" fill="#141414"/>
<path d="M49.5654 23.6903C46.8692 23.6903 44.7001 21.4998 44.7001 18.8224C44.7001 18.4371 45.0041 18.1328 45.3893 18.1328C45.7745 18.1328 46.0786 18.4371 46.0786 18.8224C46.0786 20.7493 47.6395 22.3111 49.5654 22.3111C51.4912 22.3111 53.0522 20.7493 53.0522 18.8224C53.0522 16.8956 51.4912 15.3338 49.5654 15.3338C46.8692 15.3338 44.7001 13.1635 44.7001 10.4659C44.7001 7.76831 46.8692 5.59805 49.5654 5.59805C52.2616 5.59805 54.4307 7.76831 54.4307 10.4659C54.4307 10.8513 54.1266 11.1555 53.7414 11.1555C53.3563 11.1555 53.0522 10.8513 53.0522 10.4659C53.0522 8.53905 51.4912 6.97728 49.5654 6.97728C47.6395 6.97728 46.0786 8.53905 46.0786 10.4659C46.0786 12.3928 47.6395 13.9546 49.5654 13.9546C52.2616 13.9951 54.4104 16.1857 54.3699 18.8833C54.3496 21.52 52.221 23.67 49.5654 23.6903Z" fill="#141414"/>
<path d="M49.5654 25.4143C49.1802 25.4143 48.8761 25.1101 48.8761 24.7247V4.56363C48.8761 4.17825 49.1802 3.87401 49.5654 3.87401C49.9505 3.87401 50.2546 4.17825 50.2546 4.56363V24.7247C50.2546 25.1101 49.9505 25.4143 49.5654 25.4143Z" fill="#141414"/>
<path d="M53.4982 39.592C52.1399 39.5717 50.802 39.2878 49.5654 38.7198C49.2207 38.5576 49.0586 38.1519 49.2207 37.8071C49.2207 37.8071 49.2207 37.8071 49.2207 37.7868C49.2613 37.7057 52.9914 29.8968 61.83 33.2435C62.1949 33.3855 62.3773 33.7708 62.2354 34.1359C62.2152 34.1765 62.2152 34.2171 62.1949 34.2373C62.1341 34.2982 58.9716 39.592 53.4982 39.592ZM50.8222 37.726C55.9105 39.5109 59.296 35.86 60.492 34.2576C54.755 32.5133 51.7953 36.1845 50.8222 37.726Z" fill="#141414"/>
<path d="M45.8961 46.3056C40.0577 46.3056 37.5034 40.9915 37.4832 40.9307C37.321 40.5859 37.4629 40.1802 37.8278 40.0179C37.8278 40.0179 37.8278 40.0179 37.8481 40.0179C45.7137 36.5699 50.4168 44.4193 50.4573 44.5004C50.6601 44.825 50.5384 45.2509 50.2141 45.4537C50.1735 45.474 50.1533 45.4943 50.1127 45.4943C48.7545 46.0014 47.3354 46.2853 45.8961 46.3056ZM39.1049 40.9712C40.078 42.533 43.058 46.1839 48.7747 44.4396C47.5584 42.8372 44.173 39.1863 39.1049 40.9712Z" fill="#141414"/>
<path d="M14.4743 87.9462H1.52041C0.689252 87.9462 0 87.2566 0 86.425V51.9037C0 51.0721 0.66898 50.3824 1.52041 50.3824H14.4743C15.3055 50.3824 15.9947 51.0721 15.9947 51.9037V86.425C15.9947 87.2566 15.3055 87.9462 14.4743 87.9462ZM1.52041 51.7617C1.43932 51.7617 1.3785 51.8225 1.3785 51.9037V86.425C1.3785 86.5061 1.43932 86.5669 1.52041 86.5669H14.4743C14.5554 86.5669 14.6162 86.5061 14.6162 86.425V51.9037C14.6162 51.8225 14.5554 51.7617 14.4743 51.7617H1.52041Z" fill="#141414"/>
<path d="M57.3904 75.1477C57.0052 75.1477 56.7012 74.8435 56.7012 74.4581C56.7012 74.235 56.8025 74.0119 57.0052 73.8902C58.404 72.9166 59.0933 71.2129 58.7486 69.5294C58.4851 67.927 57.2688 66.6695 55.6875 66.3044C55.3835 66.2436 55.0794 66.1827 54.755 66.1625L43.0175 65.3511C39.855 65.128 36.7736 64.3167 33.9355 62.9578L30.5501 61.3554C26.6173 59.4894 22.3196 58.5158 17.9611 58.5158H15.3055C14.9203 58.5158 14.6162 58.2116 14.6162 57.8262C14.6162 57.4409 14.9203 57.1366 15.3055 57.1366H17.9611C22.5223 57.1366 27.0228 58.1507 31.138 60.1182L34.5234 61.7205C37.2196 62.9983 40.1388 63.7691 43.1188 63.9719L54.8564 64.7832C55.2416 64.8035 55.6267 64.8643 56.0119 64.9658C58.1202 65.4526 59.7217 67.1563 60.1069 69.2657C60.5529 71.4765 59.6406 73.7279 57.7958 75.026C57.6539 75.1072 57.5323 75.1477 57.3904 75.1477Z" fill="#141414"/>
<path d="M37.6453 89.9947C36.7939 89.9947 35.9222 89.8527 35.1113 89.5485L15.0622 82.2264C14.6973 82.1047 14.5148 81.6991 14.6568 81.334C14.7784 80.9689 15.1838 80.7863 15.5487 80.9283L35.5979 88.2504C36.5507 88.5952 37.5643 88.6966 38.5576 88.5344L67.5265 84.9646C68.3982 84.8226 69.2293 84.4981 69.9591 83.991L86.7039 71.6185C88.5487 70.3407 89.1163 67.8662 87.981 65.9191C86.785 63.8908 84.1699 63.2012 82.1427 64.3979C82.0413 64.4587 81.9602 64.5195 81.8791 64.5804L68.6212 74.235C66.7561 75.6345 64.4248 76.2227 62.1138 75.8779L29.3946 70.868C29.0094 70.8275 28.7459 70.4827 28.7864 70.0973C28.827 69.7119 29.1716 69.4483 29.5568 69.4888C29.577 69.4888 29.5973 69.4888 29.5973 69.4888L62.3165 74.4987C64.2424 74.7826 66.229 74.2959 67.79 73.1194L81.0683 63.4446C83.6023 61.6394 87.1296 62.2276 88.9541 64.7629C90.7583 67.2983 90.1704 70.8275 87.6364 72.6529C87.5959 72.6732 87.5553 72.7138 87.5148 72.7341L70.77 85.1066C69.8578 85.7353 68.8239 86.1613 67.7292 86.3235L38.7603 89.9136C38.3751 89.9744 38.0102 90.015 37.6453 89.9947Z" fill="#141414"/>
<path d="M7.98722 83.1391C7.19661 83.1391 6.42627 82.8958 5.75729 82.4495C5.49375 82.267 5.25048 82.0439 5.06803 81.7802C3.8517 80.1373 4.19633 77.8048 5.83837 76.5878C7.15606 75.6142 8.94001 75.6142 10.2374 76.5878C10.501 76.7703 10.7442 76.9935 10.9267 77.2774C11.9808 78.7581 11.8389 80.7863 10.5618 82.1047C9.87253 82.7538 8.94001 83.1391 7.98722 83.1391ZM8.00749 77.2369C7.39933 77.2369 6.83171 77.4802 6.40599 77.8859C5.59511 78.7378 5.51402 80.0562 6.22354 80.9892C6.28436 81.0906 6.38572 81.192 6.48708 81.2528C7.50069 82.0439 8.96028 81.8816 9.75089 80.8675C10.4199 80.0156 10.4199 78.8189 9.75089 77.967C9.69008 77.8656 9.58872 77.7642 9.48736 77.7034C9.06164 77.4194 8.53457 77.2571 8.00749 77.2369Z" fill="#141414"/>
<path d="M81.4737 64.7021C81.1493 64.7021 80.8655 64.4587 80.8047 64.1342L80.1763 60.8484C79.6898 58.2927 77.2165 56.6093 74.6623 57.096C74.5812 57.1163 74.5001 57.1366 74.3987 57.1569C72.4526 57.6437 70.3848 57.1366 68.8847 55.8182L64.3437 51.8022C62.7017 50.3419 60.2488 50.2202 58.4648 51.5183L56.093 53.222C53.8428 54.8447 50.7817 54.7432 48.6328 52.9584L47.8828 52.3296C47.376 51.9037 46.7881 51.5994 46.1596 51.4169L40.5848 49.8145C39.1455 49.4089 37.5845 49.6928 36.4087 50.6056L25.4821 59.0635C25.178 59.3069 24.7523 59.2663 24.509 58.9621C24.2657 58.6578 24.3063 58.2319 24.6104 57.9885C24.6306 57.9885 24.6306 57.9682 24.6509 57.9682L35.5776 49.5103C37.1183 48.3339 39.1252 47.9485 40.9902 48.4759L46.5651 50.0782C47.376 50.3013 48.126 50.707 48.7747 51.2546L49.5248 51.8834C51.1871 53.2626 53.5387 53.3437 55.2821 52.0862L57.6539 50.3824C59.965 48.699 63.1274 48.8612 65.256 50.7678L69.7969 54.7838C70.9525 55.8182 72.554 56.2036 74.0541 55.8182C77.3179 55.0069 80.6223 56.9946 81.4534 60.2602C81.4737 60.3616 81.5142 60.4833 81.5345 60.5847L82.1629 63.8705C82.244 64.2559 81.9805 64.6007 81.6156 64.6818C81.5548 64.7021 81.5142 64.7021 81.4737 64.7021Z" fill="#141414"/>
</svg>
