<svg width="88" height="90" viewBox="0 0 88 90" fill="none" xmlns="http://www.w3.org/2000/svg">
<rect x="73" y="38" width="10" height="43" fill="#CCFF33"/>
<circle cx="34.5" cy="68.5" r="11.5" fill="#CCFF33"/>
<path d="M65.2719 90H3.86947C1.73108 90 0 88.2755 0 86.1452V13.0455C0 10.9152 1.73108 9.19071 3.86947 9.19071H18.6549C19.0419 9.19071 19.3474 9.49504 19.3474 9.88052C19.3474 10.266 19.0419 10.5703 18.6549 10.5703H3.86947C2.50498 10.5703 1.40523 11.6659 1.38486 13.0455V86.1655C1.38486 87.5248 2.48461 88.6407 3.86947 88.6407H65.2719C66.6364 88.6407 67.7362 87.5451 67.7565 86.1655V13.0455C67.7565 11.6862 66.6568 10.5906 65.2719 10.5703H50.4865C50.0995 10.5703 49.794 10.266 49.794 9.88052C49.794 9.49504 50.0995 9.19071 50.4865 9.19071H65.2719C67.4103 9.19071 69.1414 10.9152 69.1414 13.0455V86.1655C69.1414 88.2755 67.4103 90 65.2719 90Z" fill="#141414"/>
<path d="M64.3147 85.8814H4.84703C4.46008 85.8814 4.15459 85.5771 4.15459 85.1916V13.9991C4.15459 13.6136 4.46008 13.3093 4.84703 13.3093H17.881C18.268 13.3093 18.5735 13.6136 18.5735 13.9991C18.5735 14.3846 18.268 14.6889 17.881 14.6889H5.51909V84.5018H63.6019V14.6889H51.2604C50.8734 14.6889 50.5679 14.3846 50.5679 13.9991C50.5679 13.6136 50.8734 13.3093 51.2604 13.3093H64.2944C64.6813 13.3093 64.9868 13.6136 64.9868 13.9991V85.1916C65.0072 85.5771 64.6813 85.8814 64.3147 85.8814Z" fill="#141414"/>
<path d="M51.6677 16.8192H17.4534C17.0664 16.8192 16.7609 16.5149 16.7609 16.1294C16.7609 16.0888 16.7609 16.0482 16.7813 16.0077L18.2476 8.37917C18.5735 6.63436 20.1009 5.37647 21.8727 5.37647H29.8357V4.72723C29.8357 2.1303 31.9537 0 34.5605 0C34.6012 0 34.6623 0 34.7031 0C37.2895 0.14202 39.3261 2.29261 39.2853 4.88954V5.37647H47.2483C49.0201 5.37647 50.5476 6.63436 50.8734 8.37917L52.3397 16.0077C52.4212 16.3931 52.1564 16.7381 51.7899 16.8192C51.7695 16.7989 51.7288 16.7989 51.6677 16.8192ZM18.2884 15.4193H50.8327L49.5293 8.60234C49.3256 7.52705 48.3684 6.7358 47.2687 6.7358H38.6133C38.2263 6.7358 37.9208 6.43147 37.9208 6.04599V4.86925C37.9616 3.02299 36.5156 1.48106 34.6827 1.35933C32.8294 1.29847 31.302 2.73895 31.2409 4.58521C31.2409 4.62579 31.2409 4.64608 31.2409 4.68665V6.04599C31.2409 6.43147 30.9354 6.7358 30.5485 6.7358H21.8931C20.7933 6.7358 19.8361 7.52705 19.6325 8.60234L18.2884 15.4193Z" fill="#141414"/>
<path d="M46.3522 12.8629H39.9778C39.5908 12.8629 39.2853 12.5586 39.2853 12.1731C39.2853 11.7876 39.5908 11.4833 39.9778 11.4833H46.3522C46.7392 11.4833 47.0447 11.7876 47.0447 12.1731C47.0447 12.5586 46.7392 12.8629 46.3522 12.8629Z" fill="#141414"/>
<path d="M37.2691 12.8629H18.2069C17.8199 12.8629 17.5145 12.5586 17.5145 12.1731C17.5145 11.7876 17.8199 11.4833 18.2069 11.4833H37.2691C37.6561 11.4833 37.9616 11.7876 37.9616 12.1731C37.9616 12.5586 37.6561 12.8629 37.2691 12.8629Z" fill="#141414"/>
<path d="M58.1032 24.184H49.7533C49.3663 24.184 49.0609 23.8796 49.0609 23.4941C49.0609 23.1087 49.3663 22.8043 49.7533 22.8043H58.1032C58.4902 22.8043 58.7957 23.1087 58.7957 23.4941C58.7957 23.8796 58.4902 24.184 58.1032 24.184Z" fill="#141414"/>
<path d="M45.1303 24.184H26.2717C25.8847 24.184 25.5793 23.8796 25.5793 23.4941C25.5793 23.1087 25.8847 22.8043 26.2717 22.8043H45.1303C45.5172 22.8043 45.8227 23.1087 45.8227 23.4941C45.8227 23.8796 45.5172 24.184 45.1303 24.184Z" fill="#141414"/>
<path d="M20.3657 24.184H11.0382C10.6512 24.184 10.3458 23.8796 10.3458 23.4941C10.3458 23.1087 10.6512 22.8043 11.0382 22.8043H20.3657C20.7526 22.8043 21.0581 23.1087 21.0581 23.4941C21.0581 23.8796 20.7526 24.184 20.3657 24.184Z" fill="#141414"/>
<path d="M58.1032 33.3341H26.2717C25.8847 33.3341 25.5793 33.0298 25.5793 32.6443C25.5793 32.2588 25.8847 31.9545 26.2717 31.9545H58.1032C58.4902 31.9545 58.7957 32.2588 58.7957 32.6443C58.7957 33.0298 58.4902 33.3341 58.1032 33.3341Z" fill="#141414"/>
<path d="M20.3657 33.3341H11.0382C10.6512 33.3341 10.3458 33.0298 10.3458 32.6443C10.3458 32.2588 10.6512 31.9545 11.0382 31.9545H20.3657C20.7526 31.9545 21.0581 32.2588 21.0581 32.6443C21.0581 33.0298 20.7526 33.3341 20.3657 33.3341Z" fill="#141414"/>
<path d="M58.1032 42.4842H49.7533C49.3663 42.4842 49.0609 42.1799 49.0609 41.7944C49.0609 41.4089 49.3663 41.1046 49.7533 41.1046H58.1032C58.4902 41.1046 58.7957 41.4089 58.7957 41.7944C58.7957 42.1799 58.4902 42.4842 58.1032 42.4842Z" fill="#141414"/>
<path d="M45.1303 42.4842H31.5668C31.1798 42.4842 30.8743 42.1799 30.8743 41.7944C30.8743 41.4089 31.1798 41.1046 31.5668 41.1046H45.1303C45.5172 41.1046 45.8227 41.4089 45.8227 41.7944C45.8227 42.1799 45.5172 42.4842 45.1303 42.4842Z" fill="#141414"/>
<path d="M28.573 42.4842H11.0382C10.6512 42.4842 10.3458 42.1799 10.3458 41.7944C10.3458 41.4089 10.6512 41.1046 11.0382 41.1046H28.573C28.96 41.1046 29.2654 41.4089 29.2654 41.7944C29.2654 42.1799 28.96 42.4842 28.573 42.4842Z" fill="#141414"/>
<path d="M58.1032 51.6344H32.1574C31.7704 51.6344 31.4649 51.33 31.4649 50.9445C31.4649 50.5591 31.7704 50.2547 32.1574 50.2547H58.1032C58.4902 50.2547 58.7957 50.5591 58.7957 50.9445C58.7957 51.33 58.4902 51.6344 58.1032 51.6344Z" fill="#141414"/>
<path d="M26.2717 51.6344H11.0382C10.6512 51.6344 10.3458 51.33 10.3458 50.9445C10.3458 50.5591 10.6512 50.2547 11.0382 50.2547H26.2717C26.6586 50.2547 26.9641 50.5591 26.9641 50.9445C26.9641 51.33 26.6586 51.6344 26.2717 51.6344Z" fill="#141414"/>
<path d="M34.5605 79.9166C28.0231 79.9166 22.7077 74.6416 22.7077 68.1087C22.7077 61.5757 28.0028 56.3007 34.5605 56.3007C41.1183 56.3007 46.4133 61.5757 46.4133 68.1087C46.4133 74.6416 41.0979 79.9166 34.5605 79.9166ZM34.5605 57.7006C28.7767 57.7006 24.0926 62.367 24.0926 68.1289C24.0926 73.8909 28.7767 78.5573 34.5605 78.5573C40.3444 78.5573 45.0081 73.8909 45.0285 68.1492C45.0285 62.367 40.3444 57.7209 34.5605 57.7006Z" fill="#141414"/>
<path d="M32.3203 72.4301C32.137 72.4301 31.9537 72.349 31.8315 72.2272L29.4691 69.8738C29.184 69.61 29.184 69.1637 29.4487 68.8999C29.7135 68.6159 30.1615 68.6159 30.4263 68.8796L32.3203 70.7665L38.6947 64.4161C38.9799 64.1524 39.4075 64.1524 39.6723 64.4364C39.9371 64.7002 39.9371 65.1262 39.6723 65.39L32.8091 72.2272C32.6869 72.349 32.5036 72.4301 32.3203 72.4301Z" fill="#141414"/>
<path d="M83.377 81.2759H73.1534C72.7665 81.2759 72.461 80.9716 72.461 80.5861V32.7254C72.461 30.8589 73.9884 29.3372 75.8621 29.3372H80.648C82.5216 29.3372 84.0491 30.8589 84.0491 32.7254V80.5861C84.0694 80.9716 83.7639 81.2759 83.377 81.2759ZM73.8459 79.8963H82.6846V32.7254C82.6846 31.6096 81.7885 30.7169 80.6684 30.7169H75.8621C74.742 30.7169 73.8459 31.6298 73.8459 32.7254V79.8963Z" fill="#141414"/>
<path d="M78.2652 90C78.0208 90 77.7968 89.858 77.6746 89.6551L72.5628 80.931C72.3795 80.6064 72.4814 80.1803 72.8072 79.9775C72.909 79.9166 73.0312 79.876 73.1534 79.876H83.377C83.7639 79.876 84.0694 80.1803 84.0694 80.5658C84.0694 80.6876 84.0287 80.8093 83.9676 80.9107L78.8558 89.6348C78.7336 89.8783 78.5096 90 78.2652 90ZM74.355 81.2759L78.2652 87.9509L82.1754 81.2759H74.355Z" fill="#141414"/>
<path d="M85.9227 55.2051C85.5358 55.2051 85.2303 54.9008 85.2303 54.5153V52.2633C85.2303 52.101 85.2914 51.9387 85.3932 51.817L85.6987 51.4518C86.2893 50.7619 86.6151 49.8895 86.6151 48.9766V41.1046C86.6151 39.8873 85.6172 38.8931 84.3953 38.8931H73.1534C72.7665 38.8931 72.461 38.5888 72.461 38.2033C72.461 37.8179 72.7665 37.5135 73.1534 37.5135H84.3953C86.3911 37.5135 88 39.1366 88 41.1046V48.9766C88 50.2142 87.5519 51.4112 86.7577 52.3445L86.6151 52.5271V54.5356C86.6151 54.8805 86.2893 55.2051 85.9227 55.2051Z" fill="#141414"/>
<path d="M76.1675 64.2335C75.7806 64.2335 75.4751 63.9292 75.4751 63.5437V50.5185C75.4751 50.133 75.7806 49.8287 76.1675 49.8287C76.5545 49.8287 76.86 50.133 76.86 50.5185V63.5437C76.8803 63.9292 76.5545 64.2335 76.1675 64.2335Z" fill="#141414"/>
<path d="M76.1675 72.2475C75.7806 72.2475 75.4751 71.9432 75.4751 71.5577V66.1812C75.4751 65.7958 75.7806 65.4914 76.1675 65.4914C76.5545 65.4914 76.86 65.7958 76.86 66.1812V71.5577C76.8803 71.9432 76.5545 72.2475 76.1675 72.2475Z" fill="#141414"/>
</svg>
