<svg xmlns="http://www.w3.org/2000/svg" xmlns:xlink="http://www.w3.org/1999/xlink"><symbol fill="none" viewBox="0 0 18 18" id="close"><path d="M15.6 0L0 15.6 2.4 18 18 2.4 15.6 0z" fill="#fff"/><path d="M0 2.4L15.6 18l2.4-2.4L2.4 0 0 2.4z" fill="#fff"/></symbol><symbol fill="none" viewBox="0 0 20 13" id="down"><path d="M17.64 0L10 7.64 2.36 0 0 2.36l10 10 10-10L17.64 0z" fill="#fff"/></symbol><symbol fill="none" viewBox="0 0 14 20" id="left"><path d="M13.18 17.82l-7.64-7.64 7.64-7.64L10.82.18l-10 10 10 10 2.36-2.36z" fill="#fff"/></symbol><symbol fill="none" viewBox="0 0 20 19" id="menu"><path d="M20 0H0v3.36h20V0zm0 7.378H0v3.36h20v-3.36zm0 7.462H0v3.36h20v-3.36z" fill="#141414"/></symbol><symbol fill="none" viewBox="0 0 14 20" id="right"><path d="M.82 2.54l7.64 7.64-7.64 7.64 2.36 2.36 10-10-10-10L.82 2.54z" fill="#fff"/></symbol><symbol fill="none" viewBox="0 0 20 16" id="telegram"><path d="M7.847 10.547l-.332 4.468c.473 0 .68-.195.926-.432l2.219-2.036 4.598 3.233c.844.45 1.438.214 1.665-.746l3.02-13.582c.269-1.193-.45-1.662-1.27-1.366L.928 6.61c-1.21.45-1.191 1.1-.207 1.392l4.536 1.354 10.536-6.332c.497-.315.946-.142.575.177l-8.52 7.348z" fill="#fff"/></symbol><symbol fill="none" viewBox="0 0 20 13" id="up"><path d="M2.36 12.36L10 4.718l7.64 7.64L20 10 10 0 0 10l2.36 2.36z" fill="#fff"/></symbol></svg>