<svg width="140" height="37" viewBox="0 0 140 37" fill="none" xmlns="http://www.w3.org/2000/svg">
<path d="M48.4972 29.4989V34.4428C48.4972 35.3767 48.2797 35.926 47.736 36.3106C47.2467 36.6402 46.703 36.75 46.2137 36.75C45.67 36.75 45.1263 36.5303 44.8001 36.2007C44.637 36.0908 44.4195 35.8711 44.3108 35.7063L44.9632 35.3767C45.0176 35.4866 45.0719 35.5415 45.1263 35.6514C45.3981 35.926 45.7787 36.0908 46.2137 36.0908C46.6486 36.0908 47.0292 35.981 47.301 35.7612C47.6273 35.4866 47.736 35.157 47.736 34.4978V34.0034C47.3554 34.4428 46.8117 34.6626 46.1593 34.6626C45.5069 34.6626 44.8544 34.3879 44.4739 33.8935C44.0933 33.3991 43.9302 32.7399 43.9302 32.0807C43.9302 31.4215 44.0933 30.7624 44.4739 30.268C44.8544 29.7736 45.5069 29.4989 46.1593 29.4989C46.8117 29.4989 47.4098 29.7736 47.8447 30.268V29.6637H48.4972V29.4989ZM47.8447 31.9709C47.8447 31.4765 47.736 30.9272 47.4642 30.5976C47.1923 30.268 46.7574 30.1032 46.3224 30.1032C45.8331 30.1032 45.3981 30.268 45.1263 30.6525C44.8544 30.9821 44.7457 31.4765 44.7457 32.0258C44.7457 32.5202 44.8544 33.0146 45.1263 33.3991C45.3981 33.7837 45.8331 33.9485 46.3224 33.9485C46.8117 33.9485 47.2467 33.7837 47.5185 33.3991C47.736 33.0146 47.8447 32.4653 47.8447 31.9709Z" fill="white"/>
<path d="M52.6292 29.444V30.1581C52.4117 30.1032 52.1943 30.0482 51.9224 30.0482C51.5418 30.0482 51.2156 30.1581 50.9981 30.4328C50.5632 30.8722 50.5632 31.3666 50.5632 32.0258V34.3879H49.802V29.444H50.4544V30.213C50.5632 30.0482 50.6719 29.8834 50.8894 29.7186C51.2156 29.444 51.5962 29.3341 51.9768 29.3341C52.1943 29.3341 52.4117 29.389 52.6292 29.444Z" fill="white"/>
<path d="M54.2603 33.2893C54.5321 33.6738 54.9671 33.8386 55.4564 33.8386C55.9457 33.8386 56.3807 33.6738 56.6525 33.2893C56.7069 33.1794 56.7612 33.1245 56.8156 33.0146L57.5224 33.3442C57.468 33.4541 57.3593 33.6189 57.2506 33.7837C56.8156 34.333 56.1632 34.6076 55.4564 34.5527C54.7496 34.5527 54.0972 34.2781 53.6622 33.7287C53.2273 33.2343 53.1185 32.5751 53.1185 31.9159C53.1185 31.2567 53.2816 30.6525 53.6622 30.1032C54.0972 29.5538 54.7496 29.2792 55.4564 29.2792C56.1632 29.2792 56.8156 29.5538 57.2506 30.1032C57.6855 30.5976 57.7943 31.2567 57.7943 31.9159C57.7943 31.9709 57.7943 32.0258 57.7943 32.1357H53.9341C53.9341 32.5751 53.9884 33.0146 54.2603 33.2893ZM54.2603 30.5976C54.0428 30.8722 53.9884 31.2018 53.9341 31.5314H56.9787C56.9244 31.2018 56.8156 30.8722 56.6525 30.5976C56.3807 30.213 55.9457 30.0482 55.4564 30.0482C54.9671 30.0482 54.5321 30.268 54.2603 30.5976Z" fill="white"/>
<path d="M59.6428 33.2893C59.9146 33.6738 60.3496 33.8386 60.8389 33.8386C61.3282 33.8386 61.7632 33.6738 62.035 33.2893C62.0894 33.1794 62.1438 33.1245 62.1981 33.0146L62.9049 33.3442C62.8506 33.4541 62.7418 33.6189 62.6331 33.7837C62.1981 34.333 61.5457 34.6076 60.8389 34.5527C60.1321 34.5527 59.4797 34.2781 59.0447 33.7287C58.6098 33.2343 58.501 32.5751 58.501 31.9159C58.501 31.2567 58.6642 30.6525 59.0447 30.1032C59.4797 29.5538 60.1321 29.2792 60.8389 29.2792C61.5457 29.2792 62.1981 29.5538 62.6331 30.1032C63.068 30.5976 63.1768 31.2567 63.1768 31.9159C63.1768 31.9709 63.1768 32.0258 63.1768 32.1357H59.2622C59.3166 32.5751 59.4253 33.0146 59.6428 33.2893ZM59.6428 30.5976C59.4253 30.8722 59.371 31.2018 59.3166 31.5314H62.3612C62.3069 31.2018 62.1981 30.8722 62.035 30.5976C61.7632 30.213 61.3282 30.0482 60.8389 30.0482C60.3496 30.0482 59.9146 30.268 59.6428 30.5976Z" fill="white"/>
<path d="M68.3962 32.0258V34.4428H67.635V32.0258C67.635 31.3117 67.5807 30.7624 67.0913 30.3778C66.8195 30.213 66.5477 30.1032 66.1671 30.1032C65.8952 30.1032 65.569 30.213 65.3515 30.3778C65.1341 30.5976 64.971 30.8722 64.9166 31.2018C64.8622 31.4215 64.8622 31.6413 64.8622 31.861V34.3879H64.1011V29.444H64.7535V29.9933C64.8078 29.9384 64.8622 29.8834 64.9166 29.8285C65.2972 29.4989 65.7321 29.3341 66.2214 29.3341C66.7108 29.2792 67.2001 29.444 67.5807 29.7186C68.2875 30.3229 68.3962 31.092 68.3962 32.0258Z" fill="white"/>
<path d="M72.3651 33.2893C72.637 33.6738 73.0719 33.8386 73.5612 33.8386C74.0506 33.8386 74.4855 33.6738 74.7574 33.2893C74.8117 33.1794 74.8661 33.1245 74.9205 33.0146L75.6273 33.3442C75.5729 33.4541 75.4642 33.6189 75.3554 33.7837C74.9205 34.333 74.268 34.6076 73.5612 34.5527C72.8545 34.5527 72.202 34.2781 71.7671 33.7287C71.3321 33.2343 71.2234 32.5751 71.2234 31.9159C71.2234 31.2567 71.3865 30.6525 71.7671 30.1032C72.202 29.5538 72.8545 29.2792 73.5612 29.2792C74.268 29.2792 74.9205 29.5538 75.3554 30.1032C75.7904 30.5976 75.8991 31.2567 75.8991 31.9159C75.8991 31.9709 75.8991 32.0258 75.8991 32.1357H72.0389C72.0389 32.5751 72.1477 33.0146 72.3651 33.2893ZM72.3651 30.5976C72.1477 30.8722 72.0933 31.2018 72.0389 31.5314H75.0836C75.0292 31.2018 74.9205 30.8722 74.7574 30.5976C74.4855 30.213 74.0506 30.0482 73.5612 30.0482C73.0719 30.0482 72.637 30.268 72.3651 30.5976Z" fill="white"/>
<path d="M78.9981 31.9159L80.9011 34.3879H80.0312L78.6176 32.4653L77.204 34.3879H76.3341L78.237 31.9159L76.3884 29.4989H77.2583L78.6719 31.3666L80.0855 29.4989H80.9554L78.9981 31.9159Z" fill="white"/>
<path d="M86.1748 31.9709C86.1748 32.6301 86.0661 33.2893 85.6312 33.7837C85.1962 34.2781 84.5981 34.5527 83.9457 34.5527C83.2933 34.5527 82.7496 34.333 82.369 33.8935V36.5852H81.6079V29.444H82.2603V30.0482C82.6409 29.5538 83.2933 29.2792 83.9457 29.2792C84.5981 29.2792 85.2506 29.5538 85.6312 30.0482C86.0117 30.6525 86.1748 31.3117 86.1748 31.9709ZM85.3593 31.9709C85.3593 31.4765 85.2506 30.9821 85.0331 30.5976C84.7612 30.213 84.3263 30.0482 83.837 30.0482C83.402 30.0482 82.9671 30.213 82.6952 30.5426C82.4234 30.8722 82.3146 31.4215 82.3146 31.9159C82.3146 32.4103 82.4234 32.9597 82.6952 33.2893C82.9671 33.6189 83.402 33.8386 83.8913 33.8386C84.3807 33.8386 84.8156 33.6738 85.0875 33.2893C85.3049 32.9597 85.3593 32.4653 85.3593 31.9709Z" fill="white"/>
<path d="M88.0234 33.2893C88.2952 33.6738 88.7302 33.8386 89.2195 33.8386C89.7088 33.8386 90.1438 33.6738 90.4156 33.2893C90.47 33.1794 90.5244 33.1245 90.5787 33.0146L91.2855 33.3442C91.2312 33.4541 91.1224 33.6189 91.0137 33.7837C90.5787 34.333 89.9263 34.6076 89.2195 34.5527C88.5127 34.5527 87.8603 34.2781 87.4253 33.7287C86.9904 33.2343 86.8816 32.5751 86.8816 31.9159C86.8816 31.2567 87.0447 30.6525 87.4253 30.1032C87.8603 29.5538 88.5127 29.2792 89.2195 29.2792C89.9263 29.2792 90.5787 29.5538 91.0137 30.1032C91.4486 30.5976 91.5574 31.2567 91.5574 31.9159C91.5574 31.9709 91.5574 32.0258 91.5574 32.1357H87.6972C87.6972 32.5751 87.8059 33.0146 88.0234 33.2893ZM88.0234 30.5976C87.8059 30.8722 87.7515 31.2018 87.6972 31.5314H90.7418C90.6875 31.2018 90.5787 30.8722 90.4156 30.5976C90.1438 30.213 89.7088 30.0482 89.2195 30.0482C88.7302 30.0482 88.2952 30.268 88.0234 30.5976Z" fill="white"/>
<path d="M95.4176 29.444V30.1581C95.2001 30.1032 94.9826 30.0482 94.7108 30.0482C94.3302 30.0482 94.004 30.1581 93.7865 30.4328C93.3515 30.8722 93.3515 31.3666 93.3515 32.0258V34.3879H92.5904V29.444H93.2428V30.213C93.3515 30.0482 93.4603 29.8834 93.6778 29.7186C94.004 29.444 94.3846 29.3341 94.7651 29.3341C94.9826 29.3341 95.2001 29.389 95.4176 29.444Z" fill="white"/>
<path d="M97.103 27.8509V28.62H96.3962V27.8509H97.103ZM97.103 29.4989V34.4428H96.3962V29.4989H97.103Z" fill="white"/>
<path d="M99.3321 33.2893C99.604 33.6738 100.039 33.8386 100.528 33.8386C101.018 33.8386 101.453 33.6738 101.724 33.2893C101.779 33.1794 101.833 33.1245 101.887 33.0146L102.594 33.3442C102.54 33.4541 102.431 33.6189 102.322 33.7837C101.887 34.333 101.235 34.6076 100.528 34.5527C99.8214 34.5527 99.169 34.2781 98.7341 33.7287C98.2991 33.2343 98.1904 32.5751 98.1904 31.9159C98.1904 31.2567 98.3535 30.6525 98.7341 30.1032C99.169 29.5538 99.8214 29.2792 100.528 29.2792C101.235 29.2792 101.887 29.5538 102.322 30.1032C102.757 30.5976 102.866 31.2567 102.866 31.9159C102.866 31.9709 102.866 32.0258 102.866 32.1357H99.0059C99.0059 32.5751 99.1147 33.0146 99.3321 33.2893ZM99.3321 30.5976C99.1147 30.8722 99.0603 31.2018 99.0059 31.5314H102.051C101.996 31.2018 101.887 30.8722 101.724 30.5976C101.453 30.213 101.018 30.0482 100.528 30.0482C100.039 30.0482 99.604 30.268 99.3321 30.5976Z" fill="white"/>
<path d="M108.086 32.0258V34.4428H107.324V32.0258C107.324 31.3117 107.27 30.7624 106.781 30.3778C106.509 30.213 106.237 30.1032 105.856 30.1032C105.585 30.1032 105.258 30.213 105.041 30.3778C104.823 30.5976 104.66 30.8722 104.606 31.2018C104.552 31.4215 104.552 31.6413 104.552 31.861V34.3879H103.845V29.444H104.497V29.9933C104.552 29.9384 104.606 29.8834 104.66 29.8285C105.041 29.4989 105.476 29.3341 105.965 29.3341C106.454 29.2792 106.944 29.444 107.324 29.7186C107.977 30.3229 108.086 31.092 108.086 32.0258Z" fill="white"/>
<path d="M112.598 30.8722C112.544 30.7624 112.489 30.6525 112.435 30.5976C112.163 30.213 111.728 30.0482 111.239 30.0482C110.804 30.0482 110.315 30.213 110.043 30.5976C109.771 30.9821 109.662 31.4765 109.662 31.9159C109.662 32.4103 109.771 32.9047 110.043 33.2343C110.315 33.6189 110.75 33.7837 111.239 33.7837C111.728 33.7837 112.163 33.6189 112.435 33.2343C112.489 33.1794 112.544 33.0695 112.598 32.9597L113.305 33.2893C113.196 33.3991 113.142 33.5639 113.033 33.6738C112.598 34.2231 111.946 34.4978 111.239 34.4978C110.532 34.4978 109.88 34.2231 109.445 33.6738C109.01 33.1794 108.901 32.5202 108.901 31.861C108.901 31.2018 109.064 30.5976 109.445 30.0482C109.88 29.4989 110.532 29.2242 111.239 29.2242C111.946 29.2242 112.598 29.4989 113.033 30.0482C113.142 30.1581 113.196 30.3229 113.305 30.4877L112.598 30.8722Z" fill="white"/>
<path d="M114.99 33.2893C115.262 33.6738 115.697 33.8386 116.187 33.8386C116.676 33.8386 117.111 33.6738 117.383 33.2893C117.437 33.1794 117.491 33.1245 117.546 33.0146L118.253 33.3442C118.198 33.4541 118.089 33.6189 117.981 33.7837C117.546 34.333 116.893 34.6076 116.187 34.5527C115.48 34.5527 114.827 34.2781 114.392 33.7287C113.957 33.2343 113.849 32.5751 113.849 31.9159C113.849 31.2567 114.012 30.6525 114.392 30.1032C114.827 29.5538 115.48 29.2792 116.187 29.2792C116.893 29.2792 117.546 29.5538 117.981 30.1032C118.416 30.5976 118.524 31.2567 118.524 31.9159C118.524 31.9709 118.524 32.0258 118.524 32.1357H114.664C114.664 32.5751 114.719 33.0146 114.99 33.2893ZM114.99 30.5976C114.773 30.8722 114.719 31.2018 114.664 31.5314H117.709C117.654 31.2018 117.546 30.8722 117.383 30.5976C117.111 30.213 116.676 30.0482 116.187 30.0482C115.697 30.0482 115.262 30.268 114.99 30.5976Z" fill="white"/>
<path d="M50.7263 9.55829C56.7069 9.55829 57.1418 14.9417 57.1418 14.9417H53.4991C53.4991 14.9417 53.3904 12.3049 50.7807 12.3049C48.4428 12.3049 47.6273 14.2825 47.6273 16.8094C47.6273 19.2814 48.4428 21.3139 50.7807 21.3139C53.3904 21.3139 53.4991 18.6771 53.4991 18.6771H57.1418C57.1418 18.6771 56.7612 24.0605 50.7263 24.0605C46.268 24.0605 43.9302 20.8195 43.9302 16.8094C43.9302 12.7993 46.3224 9.55829 50.7263 9.55829Z" fill="white"/>
<path d="M57.7399 14.1726C57.9574 10.6569 60.7302 9.55829 63.8836 9.55829C67.1457 9.55829 69.7554 10.7668 69.7554 14.2825V23.6211H66.1127V20.9843H66.004C66.004 20.9843 65.1884 24.0056 61.7088 24.0056C59.2078 24.0056 57.4137 22.852 57.4137 20.3251C57.4137 17.7433 59.4797 16.5897 61.7632 16.0404C64.0467 15.4361 66.1671 15.2713 66.1671 13.7332C66.1671 12.6345 65.4059 12.0303 63.9379 12.0303C62.3612 12.0303 61.4913 12.6895 61.437 14.1177H57.7399V14.1726ZM63.2311 17.8531C62.035 18.1278 61.0564 18.7321 61.0564 19.9406C61.0564 20.9843 61.7632 21.6435 62.9593 21.6435C65.4603 21.6435 66.1127 18.7321 66.1127 16.6995C65.5146 17.3038 64.2642 17.5785 63.2311 17.8531Z" fill="white"/>
<path d="M70.5166 9.94282H74.0506V12.1951H74.1593C74.1593 12.1951 75.3554 9.55829 78.3457 9.55829C82.1515 9.55829 83.1846 12.0852 83.1846 15.2164V23.676H79.5418V16.0404C79.5418 13.6782 78.8894 12.6345 77.204 12.6345C75.2467 12.6345 74.2137 13.843 74.2137 16.5897V23.7309H70.571V9.94282H70.5166Z" fill="white"/>
<path d="M83.9457 9.94282H87.4797V12.1951H87.5884C87.5884 12.1951 88.7846 9.55829 91.7748 9.55829C95.5807 9.55829 96.6137 12.0852 96.6137 15.2164V23.676H92.971V16.0404C92.971 13.6782 92.3185 12.6345 90.6331 12.6345C88.6758 12.6345 87.6428 13.843 87.6428 16.5897V23.7309H84.0001V9.94282H83.9457Z" fill="white"/>
<path d="M97.4836 14.1726C97.7011 10.6569 100.474 9.55829 103.627 9.55829C106.889 9.55829 109.499 10.7668 109.499 14.2825V23.6211H105.856V20.9843H105.748C105.748 20.9843 104.932 24.0056 101.453 24.0056C98.9515 24.0056 97.1574 22.852 97.1574 20.3251C97.1574 17.7433 99.2234 16.5897 101.507 16.0404C103.79 15.4361 105.911 15.2713 105.911 13.7332C105.911 12.6345 105.15 12.0303 103.682 12.0303C102.105 12.0303 101.235 12.6895 101.181 14.1177H97.4836V14.1726ZM102.975 17.8531C101.779 18.1278 100.8 18.7321 100.8 19.9406C100.8 20.9843 101.507 21.6435 102.703 21.6435C105.204 21.6435 105.856 18.7321 105.856 16.6995C105.258 17.3038 104.008 17.5785 102.975 17.8531Z" fill="white"/>
<path d="M113.631 19.1715C113.631 19.1715 113.631 21.5336 116.513 21.5336C118.47 21.5336 119.014 20.5998 119.014 19.8307C119.014 16.9193 110.423 19.1715 110.423 13.898C110.423 11.5359 112.653 9.55829 116.295 9.55829C121.515 9.55829 122.276 12.5796 122.276 13.898H118.742C118.742 13.898 118.742 12.0303 116.241 12.0303C114.827 12.0303 114.012 12.7444 114.012 13.6233C114.012 15.9854 122.602 14.2825 122.602 19.4462C122.602 22.083 120.373 24.0605 116.458 24.0605C111.13 24.0605 110.043 20.7646 110.043 19.1715H113.631Z" fill="white"/>
<path d="M126.952 23.676H123.309V9.94282H126.952V23.676Z" fill="white"/>
<path d="M127.713 9.94282H134.237C137.771 9.94282 139.565 11.1513 139.565 13.6233C139.565 15.8756 137.499 16.3699 137.499 16.3699V16.4798C137.499 16.4798 140 17.0291 140 19.6659C140 22.3027 138.315 23.6211 134.672 23.6211H127.767V9.94282H127.713ZM133.965 15.491C135.27 15.491 135.922 14.9417 135.922 14.0628C135.922 13.1838 135.379 12.6345 134.237 12.6345H131.355V15.546H133.965V15.491ZM131.355 17.8531V21.0392H134.509C135.705 21.0392 136.357 20.4899 136.357 19.4462C136.357 18.4025 135.596 17.8531 134.291 17.8531H131.355Z" fill="white"/>
<path fill-rule="evenodd" clip-rule="evenodd" d="M22.1825 25.3789L29.468 34.6076L19.1379 26.2029L8.80777 34.5527L16.1476 25.3789L0 22.9619L15.8214 22.6872L2.50097 6.59193L17.7786 20.7646L19.1379 0L20.4971 20.7646L35.7748 6.59193L22.5087 22.6872L38.2757 23.0168L22.1825 25.3789Z" fill="#CCFF33"/>
</svg>
