<svg width="439" height="393" viewBox="0 0 439 393" fill="none" xmlns="http://www.w3.org/2000/svg">
<path d="M254.349 287.705L253.486 287.831L254.03 288.512L334.761 389.765L219.814 297.168L219.501 296.916L219.188 297.167L104.304 389.107L185.592 288.514L186.142 287.834L185.276 287.705L6.07981 261.148L181.47 258.133L182.516 258.115L181.845 257.313L33.9336 80.3571L203.572 236.168L204.341 236.874L204.409 235.833L219.5 7.57939L234.591 235.833L234.659 236.874L235.428 236.168L405.151 80.2796L257.778 257.313L257.113 258.112L258.152 258.133L432.944 261.751L254.349 287.705Z" fill="#CCFF33" stroke="#141414"/>
</svg>
