<svg width="180" height="161" viewBox="0 0 180 161" fill="none" xmlns="http://www.w3.org/2000/svg">
<path d="M104.246 117.572L103.384 117.697L103.927 118.379L135.359 157.766L90.3135 121.51L90.001 121.259L89.6877 121.509L44.7062 157.477L76.3263 118.381L76.8769 117.7L76.0107 117.572L6.0849 107.218L74.412 106.044L75.4585 106.026L74.7869 105.224L17.0124 36.1642L83.2699 96.9684L84.038 97.6733L84.1069 96.633L90 7.57279L95.8931 96.633L95.962 97.6733L96.7301 96.9684L163.072 36.0868L105.468 105.224L104.803 106.023L105.842 106.044L173.939 107.453L104.246 117.572Z" fill="white" stroke="#141414"/>
</svg>
