<svg width="120" height="107" viewBox="0 0 120 107" fill="none" xmlns="http://www.w3.org/2000/svg">
<path d="M69.4738 77.9718L68.6091 78.097L69.1551 78.7791L89.1613 103.771L60.3129 80.6243L60.001 80.3741L59.6883 80.6233L30.9044 103.568L51.0133 78.7817L51.5662 78.1002L50.698 77.972L6.10368 71.3892L49.6108 70.6444L50.6595 70.6264L49.9853 69.823L13.0997 25.8696L55.4011 64.5689L56.1686 65.2711L56.2375 64.2331L60 7.54939L63.7625 64.2331L63.8314 65.2711L64.5989 64.5689L106.985 25.7923L70.1845 69.8238L69.5167 70.6229L70.5579 70.6443L113.921 71.5383L69.4738 77.9718Z" fill="#CCFF33" stroke="#141414"/>
</svg>
