<svg width="120" height="120" viewBox="0 0 120 120" fill="none" xmlns="http://www.w3.org/2000/svg">
<path d="M81.3511 37.9009C80.176 37.7142 79.1356 38.0416 78.242 38.8249C77.3484 39.6082 76.8374 40.5936 76.5803 41.8145C76.3109 43.0936 76.4272 44.2718 76.8463 45.453C77.2655 46.6342 78.0734 47.4115 79.2453 47.9011L81.3511 37.9009Z" fill="#CCFF33"/>
<path d="M46.6 59.9106C47.518 59.011 48.1699 57.9339 48.4515 56.5966C48.7575 55.1431 48.6658 53.8487 48.1181 52.7011C47.6285 51.5658 46.787 50.66 45.664 49.9378L43.3379 60.9846C44.5711 61.1835 45.6819 60.8102 46.6 59.9106Z" fill="#CCFF33"/>
<path d="M80.3217 67.0113C81.2398 66.1117 81.8916 65.0346 82.1732 63.6974C82.4793 62.2438 82.3875 60.9494 81.8398 59.8019C81.3502 58.6666 80.5088 57.7607 79.3857 57.0385L77.0596 68.0853C78.2928 68.2842 79.4037 67.911 80.3217 67.0113Z" fill="#CCFF33"/>
<path d="M47.6293 30.8002C46.4543 30.6134 45.4138 30.9408 44.5203 31.7242C43.6267 32.5075 43.1156 33.4928 42.8585 34.7138C42.5892 35.9929 42.7054 37.171 43.1246 38.3522C43.5438 39.5334 44.3516 40.3107 45.5236 40.8004L47.6293 30.8002Z" fill="#CCFF33"/>
<path d="M72.157 2.26595C40.2958 -4.44302 8.97507 15.9817 2.2661 47.8429C-4.44287 79.7042 15.9819 111.025 47.8431 117.734C79.7043 124.443 111.025 104.018 117.734 72.1568C124.443 40.2956 104.018 8.97492 72.157 2.26595ZM73.8227 52.8919C72.8068 51.9494 71.9898 50.9272 71.3717 49.8256C70.7536 48.7239 70.4048 47.4968 70.2549 46.1902C70.105 44.8835 70.2367 43.3933 70.6039 41.649C70.9467 40.0211 71.4976 38.5584 72.2688 37.2028C73.04 35.8472 73.9948 34.7732 75.0414 33.8399C76.088 32.9066 77.3059 32.313 78.6034 31.9183C79.9009 31.5236 81.2412 31.5023 82.5907 31.7257L83.1661 28.9931L85.1429 29.4093L84.5675 32.142C90.4489 33.6233 92.6733 38.342 91.3113 46.2522L85.6716 45.0647C85.9746 42.7605 85.9441 41.1754 85.5341 40.239C85.1241 39.3026 84.3499 38.6538 83.3156 38.3753L81.063 49.0732C83.0183 50.4564 84.5789 51.6958 85.6744 52.8373C86.7698 53.9787 87.5623 55.1171 88.0519 56.2524C88.5415 57.3877 88.7862 58.5322 88.7739 59.744C88.7617 60.9558 88.5963 62.3175 88.2658 63.8873C87.874 65.7478 87.2987 67.3268 86.5275 68.6824C85.7563 70.038 84.8352 71.2405 83.7427 72.1034C82.638 73.0245 81.42 73.6181 80.0644 74.0005C78.7088 74.383 77.2981 74.4503 75.8323 74.2023L75.3181 76.6443L73.3413 76.228L73.8555 73.7861C72.1021 73.174 70.6639 72.5068 69.5072 71.6561C68.3505 70.8054 67.4754 69.771 66.894 68.4949C66.3127 67.2189 66.0129 65.7592 65.9364 64.1037C65.8722 62.39 66.0896 60.4928 66.5548 58.2834L72.3107 59.4955C72.1454 60.8572 72.0873 61.9986 72.1362 62.9197C72.1851 63.8408 72.2708 64.5874 72.4972 65.2423C72.7358 65.839 73.0571 66.3317 73.461 66.7204C73.865 67.109 74.4096 67.4058 75.141 67.6813L77.6875 55.588C76.1697 54.7219 74.8967 53.8467 73.8227 52.8919ZM40.1009 45.7912C39.085 44.8486 38.268 43.8265 37.65 42.7249C37.0319 41.6232 36.6831 40.3961 36.5332 39.0894C36.3833 37.7828 36.5149 36.2925 36.8822 34.5483C37.225 32.9204 37.7759 31.4577 38.5471 30.1021C39.3183 28.7465 40.273 27.6725 41.3196 26.7392C42.3662 25.8059 43.5841 25.2123 44.8816 24.8176C46.1791 24.4229 47.5194 24.4015 48.8689 24.625L49.4443 21.8923L51.4211 22.3086L50.8457 25.0412C56.7271 26.5225 58.9516 31.2413 57.5895 39.1515L51.9499 37.964C52.2529 35.6597 52.2224 34.0746 51.8124 33.1382C51.4024 32.2018 50.6282 31.5531 49.5939 31.2745L47.3412 41.9725C49.2966 43.3557 50.8572 44.5951 51.9526 45.7366C53.0481 46.878 53.8406 48.0164 54.3302 49.1517C54.8197 50.287 55.0645 51.4315 55.0522 52.6433C55.0399 53.8551 54.8746 55.2168 54.5441 56.7866C54.1523 58.6471 53.5769 60.2261 52.8057 61.5817C52.0345 62.9372 51.1134 64.1398 50.0209 65.0027C48.9285 65.8656 47.6983 66.5173 46.3426 66.8998C44.987 67.2823 43.5763 67.3495 42.1106 67.1016L41.5964 69.5435L39.6196 69.1273L40.1338 66.6853C38.3804 66.0733 36.9422 65.4061 35.7855 64.5554C34.6288 63.7046 33.7537 62.6703 33.1723 61.3942C32.5909 60.1181 32.2911 58.6585 32.2147 57.003C32.1505 55.2893 32.3678 53.3921 32.8331 51.1827L38.589 52.3947C38.4237 53.7565 38.3655 54.8979 38.4144 55.819C38.4634 56.74 38.549 57.4867 38.7754 58.1416C39.0141 58.7383 39.3354 59.231 39.7393 59.6196C40.1432 60.0083 40.6879 60.3051 41.4192 60.5806L43.9657 48.4872C42.448 47.6212 41.175 46.7459 40.1009 45.7912ZM110.286 68.8884C108.793 69.0597 107.302 68.928 105.849 68.622C105.384 68.524 104.919 68.4261 104.466 68.27C100.552 75.0357 95.8388 81.2689 90.3059 86.7829C78.0039 99.0686 64.5058 104.059 51.3078 101.28C38.1098 98.5009 27.7702 88.4909 21.4671 72.2876C18.6858 65.0229 16.8286 57.4063 15.9752 49.6367C15.4978 49.5969 15.0327 49.499 14.6257 49.4133C13.1599 49.1653 11.7554 48.6267 10.5161 47.88C9.98362 47.525 9.76945 46.812 10.1367 46.2214C10.4917 45.689 11.2047 45.4748 11.7953 45.842C11.8412 45.9124 16.1619 48.4616 23.0073 46.8064C23.65 46.6381 24.2864 47.0757 24.4547 47.7184C24.623 48.361 24.1854 48.9975 23.5427 49.1657C21.8719 49.6033 20.1338 49.7837 18.4324 49.7898C19.243 57.186 24.7038 93.2492 51.8556 98.9666C79.0074 104.684 98.5595 73.8269 102.272 67.4437C100.717 66.7521 99.1994 65.886 97.8469 64.8119C97.3267 64.3987 97.241 63.6521 97.596 63.1196C98.0091 62.5994 98.7558 62.5138 99.2882 62.8688C105.001 67.1684 109.879 66.4954 109.949 66.4495C110.58 66.3393 111.216 66.777 111.314 67.4655C111.354 68.1418 110.916 68.7782 110.286 68.8884Z" fill="#CCFF33"/>
</svg>
