<svg width="119" height="119" viewBox="0 0 119 119" fill="none" xmlns="http://www.w3.org/2000/svg">
<path fill-rule="evenodd" clip-rule="evenodd" d="M43.0848 5.36452C13.1473 14.4922 -3.72243 46.1609 5.40529 76.0985C14.533 106.036 46.2017 122.906 76.1393 113.778C106.077 104.65 122.947 72.9816 113.819 43.0441C104.691 13.1065 73.0224 -3.7632 43.0848 5.36452ZM3.17686 76.7779C-6.32611 45.6096 11.2371 12.6391 42.4054 3.13609C73.5737 -6.36688 106.544 11.1963 116.047 42.3646C125.55 73.5329 107.987 106.504 76.8187 116.006C45.6504 125.509 12.6798 107.946 3.17686 76.7779Z" fill="#CCFF33"/>
<path d="M90.1981 51.6463C92.7962 58.7698 93.0932 66.5341 91.0619 73.8513C90.5347 75.7169 89.8621 77.5051 88.9884 79.2329C88.1147 80.9606 87.0956 82.6109 85.9311 84.1837C80.053 92.0649 71.0265 97.009 61.1718 97.639C59.2531 97.7368 57.2835 97.6676 55.3914 97.4529C47.9003 96.4488 40.8562 93.1164 35.2768 87.9979C38.3593 89.9199 41.7081 91.5171 45.1609 92.6564C46.8594 93.2346 48.5966 93.74 50.3386 94.0614C52.0976 94.4384 53.8613 94.6313 55.6081 94.7686C57.3379 94.8501 59.1451 94.7862 60.8626 94.6279C62.5632 94.4138 64.2854 94.0714 65.9737 93.6175C67.6451 93.1079 69.2824 92.4869 70.8858 91.7545C72.4892 91.0221 73.9859 90.1395 75.4657 89.2013C78.4081 87.269 80.9749 84.9033 83.2556 82.1985C84.3596 80.8268 85.3183 79.3776 86.2042 77.8897C87.0731 76.3461 87.7967 74.725 88.3918 73.0822C88.9869 71.4394 89.4924 69.7022 89.8137 67.9602C90.1908 66.2012 90.4394 64.4205 90.5596 62.618C90.8945 58.9234 90.7498 55.2533 90.1981 51.6463Z" fill="#CCFF33"/>
<path d="M61.8227 47.45C61.5774 46.2461 61.6107 44.9573 61.9904 43.8063C62.3532 42.5997 62.9728 41.4366 63.7718 40.4623C67.1905 36.4972 72.6502 34.8326 77.6995 36.2158C78.9062 36.5786 80.0693 37.1982 81.0436 37.9972C82.0179 38.7962 82.8033 39.7745 83.2327 40.9832C81.2821 40.1774 79.1936 39.7182 77.0738 39.7555C75.1382 39.7977 73.2318 40.1354 71.3934 40.6959C69.5549 41.2564 67.7844 42.0398 66.1545 43.0848C64.4859 44.2024 62.9362 45.71 61.8227 47.45Z" fill="#CCFF33"/>
<path d="M46.6945 53.9501C45.6937 53.4636 44.4871 53.1008 42.9632 52.8957C41.4562 52.7462 39.5593 52.7157 37.2894 52.8597L33.2781 44.0968C34.3197 43.7184 35.2402 43.7421 36.0956 44.1511C36.951 44.5601 37.8431 45.6886 38.8106 47.4639L43.9937 45.092C40.8025 38.8191 36.4869 36.8469 31.0129 39.0638L29.9653 36.8259L28.139 37.6262L29.1867 39.8642C27.9733 40.4777 26.9393 41.2801 26.0846 42.2714C25.2856 43.2456 24.649 44.3531 24.3032 45.6154C23.9404 46.822 23.7957 48.1448 23.9079 49.5111C24.02 50.8774 24.3719 52.2314 24.9637 53.5733C25.5725 54.9708 26.3361 56.0775 27.1433 56.9275C27.9504 57.7774 28.9294 58.3922 29.9859 58.8617C31.0424 59.3311 32.2708 59.5655 33.5766 59.6545C34.9381 59.7265 36.4328 59.6361 38.0776 59.4391L42.5401 69.2822C41.8716 69.4861 41.2248 69.5615 40.6724 69.5472C40.1201 69.533 39.6452 69.3733 39.1193 69.0465C38.6104 68.7754 38.0893 68.2645 37.5899 67.6252C37.0906 66.9859 36.5402 66.1795 35.922 65.1502L30.6831 67.539C31.4835 69.3653 32.4048 70.7893 33.3138 71.9735C34.2786 73.1407 35.3256 73.9784 36.4547 74.4865C37.6009 75.0504 38.8293 75.2848 40.2125 75.2284C41.5958 75.172 43.151 74.8805 44.861 74.2982L45.768 76.2746L47.5943 75.4743L46.6872 73.4979C47.9951 72.7947 49.0848 71.9753 49.9952 70.9671C50.8499 69.9758 51.4695 68.8126 51.888 67.589C52.3065 66.3654 52.3955 65.0596 52.2664 63.6376C52.1373 62.2156 51.7683 60.8059 51.0699 59.3139C50.5121 58.0835 49.8768 56.9985 49.2538 56.1533C48.4684 55.175 47.6395 54.4535 46.6945 53.9501ZM35.148 53.0255C33.978 53.3822 32.8951 53.2253 31.8773 52.6832C30.9153 52.124 30.1808 51.3128 29.691 50.3053C29.2738 49.3364 29.1522 48.3384 29.4375 47.2772C29.7398 46.2716 30.3499 45.4767 31.3962 44.9142L35.148 53.0255ZM46.2788 65.7676C46.0105 66.8846 45.3059 67.7692 44.2597 68.3317L40.1634 59.2903C41.457 59.1394 42.5957 59.2794 43.6134 59.8215C44.6312 60.3637 45.4383 61.2136 45.9792 62.3883C46.4473 63.5242 46.5472 64.6507 46.2788 65.7676Z" fill="#CCFF33"/>
</svg>
