<svg width="90" height="68" viewBox="0 0 90 68" fill="none" xmlns="http://www.w3.org/2000/svg">
<circle cx="45" cy="14" r="6" fill="#CCFF33"/>
<path d="M29 53.5C29 57.0804 27.525 60.5142 24.8995 63.0459C22.274 65.5777 18.713 67 15 67C11.287 67 7.72602 65.5777 5.10051 63.0459C2.475 60.5142 1 57.0804 1 53.5L29 53.5Z" fill="#CCFF33"/>
<path d="M89 53.5C89 57.0804 87.525 60.5142 84.8995 63.0459C82.274 65.5777 78.713 67 75 67C71.287 67 67.726 65.5777 65.1005 63.0459C62.475 60.5142 61 57.0804 61 53.5L89 53.5Z" fill="#CCFF33"/>
<path d="M47.3225 55.9991H42.6775C42.2921 55.9991 41.9878 55.6945 41.9878 55.3087V19.1639C41.9878 18.7781 42.2921 18.4735 42.6775 18.4735C43.0629 18.4735 43.3671 18.7781 43.3671 19.1639V54.6183H46.6126V19.1639C46.6126 18.7781 46.9168 18.4735 47.3022 18.4735C47.6876 18.4735 47.9919 18.7781 47.9919 19.1639V55.3087C48.0122 55.6945 47.7079 55.9991 47.3225 55.9991Z" fill="#141414"/>
<path d="M47.3225 8.66562C46.9371 8.66562 46.6329 8.36103 46.6329 7.97521C46.6329 7.9346 46.6329 7.9143 46.6329 7.87368V4.17798C46.6329 3.62971 45.7809 2.51288 45.0101 1.68033C44.8276 1.88339 44.6045 2.12706 44.3813 2.39104C43.8945 2.87839 43.5497 3.50788 43.3874 4.17798V7.87368C43.3874 7.9143 43.3874 7.9346 43.3874 7.97521C43.3874 8.36103 43.0832 8.66562 42.6978 8.66562C42.3124 8.66562 42.0081 8.36103 41.9878 7.97521V4.17798C41.9878 3.46726 42.4138 2.5941 43.3063 1.51788C43.6917 1.05084 44.0974 0.604106 44.5233 0.197984C44.787 -0.0659948 45.213 -0.0659948 45.4767 0.197984C45.9026 0.604106 48.0122 2.67533 48.0122 4.17798V7.97521C48.0122 8.36103 47.7079 8.66562 47.3225 8.66562Z" fill="#141414"/>
<path d="M39.4118 11.9349H17.8905C17.5051 11.9349 17.2008 11.6303 17.2008 11.2445C17.2008 10.8587 17.5051 10.5541 17.8905 10.5541H39.4118C39.7972 10.5541 40.1014 10.8587 40.1014 11.2445C40.1014 11.6303 39.7972 11.9349 39.4118 11.9349Z" fill="#141414"/>
<path d="M39.4118 16.585H17.6065C17.2211 16.585 16.9168 16.2804 16.9168 15.8946C16.9168 15.5088 17.2211 15.2042 17.6065 15.2042H39.3509C39.7363 15.1636 40.0811 15.4479 40.1014 15.8337C40.1014 15.854 40.1014 15.8743 40.1014 15.8946C40.1014 16.2804 39.7972 16.585 39.4118 16.585Z" fill="#141414"/>
<path d="M72.3935 16.585H50.5882C50.2028 16.585 49.8986 16.2804 49.8986 15.8946C49.8986 15.5088 50.2028 15.2042 50.5882 15.2042H72.4138C72.7992 15.2042 73.1034 15.5088 73.1034 15.8946C73.1034 16.2804 72.7789 16.585 72.3935 16.585Z" fill="#141414"/>
<path d="M72.1095 11.9349H50.5882C50.2028 11.9349 49.8986 11.6303 49.8986 11.2445C49.8986 10.8587 50.2028 10.5541 50.5882 10.5541H72.1095C72.4949 10.5541 72.7992 10.8587 72.7992 11.2445C72.7992 11.6303 72.4949 11.9349 72.1095 11.9349Z" fill="#141414"/>
<path d="M12.6978 16.585H9.93915C9.26978 16.585 8.25558 16.1789 6.714 15.326C5.65923 14.7371 4.78702 14.1483 4.74645 14.128C4.42191 13.9249 4.34077 13.4782 4.54361 13.1736C4.60446 13.0923 4.66531 13.0314 4.74645 12.9705C5.37525 12.5847 8.51927 10.5541 9.93915 10.5541H12.4138C12.7992 10.5541 13.1034 10.8587 13.1034 11.2445C13.1034 11.6303 12.7992 11.9349 12.4138 11.9349H9.93915C9.35091 11.9349 7.76876 12.7675 6.4503 13.5594C6.73428 13.7218 7.05882 13.9249 7.40365 14.128C9.14807 15.1027 9.75659 15.2042 9.93915 15.2042H12.6978C13.0832 15.2042 13.3874 15.5088 13.3874 15.8946C13.3874 16.2804 13.0832 16.585 12.6978 16.585Z" fill="#141414"/>
<path d="M80.0609 16.585H77.3022C76.9168 16.585 76.6126 16.2804 76.6126 15.8946C76.6126 15.5088 76.9168 15.2042 77.3022 15.2042H80.0609C80.6491 15.2042 82.2312 14.3716 83.5497 13.5797C83.2657 13.4172 82.9412 13.2142 82.5963 13.0314C80.8114 12.0364 80.2028 11.9552 80.0609 11.9552H77.5862C77.2008 11.9552 76.8966 11.6506 76.8966 11.2648C76.8966 10.879 77.2008 10.5744 77.5862 10.5744H80.0609C80.4868 10.5744 81.2779 10.6962 83.286 11.8131C84.3408 12.4019 85.213 12.9705 85.2535 12.9908C85.5781 13.1939 85.6592 13.6203 85.4564 13.9452C85.3955 14.0264 85.3347 14.0873 85.2535 14.1483C84.6247 14.5544 81.4807 16.585 80.0609 16.585Z" fill="#141414"/>
<path d="M55.4767 60.7507H34.5436C34.1582 60.7507 33.854 60.4461 33.854 60.0603V57.1769C33.854 55.7554 35.0101 54.6183 36.4097 54.6183H53.6105C55.0304 54.6183 56.1663 55.7757 56.1663 57.1769V60.0603C56.1663 60.4461 55.8418 60.7507 55.4767 60.7507ZM35.2333 59.3699H54.7667V57.1972C54.7667 56.5474 54.2393 56.0194 53.5903 56.0194H36.3895C35.7404 56.0194 35.213 56.5474 35.213 57.1972L35.2333 59.3699Z" fill="#141414"/>
<path fill-rule="evenodd" clip-rule="evenodd" d="M38.2732 13.5594C38.2732 9.84791 41.2794 6.81506 45.0101 6.81506C48.7191 6.81506 51.7471 9.84639 51.7471 13.5594C51.7471 17.2709 48.7409 20.3037 45.0101 20.3037C41.3012 20.3037 38.2732 17.2724 38.2732 13.5594ZM45.0101 8.20129C42.0472 8.20129 39.6579 10.6105 39.6579 13.5594C39.6579 16.5068 42.0659 18.9175 45.0101 18.9175C47.9731 18.9175 50.3624 16.5083 50.3624 13.5594C50.3624 10.612 47.9543 8.20129 45.0101 8.20129ZM45.0101 11.9579C44.1146 11.9579 43.3901 12.6832 43.3901 13.5797C43.3901 14.4762 44.1146 15.2015 45.0101 15.2015C45.9017 15.2015 46.6301 14.4598 46.6301 13.5797C46.6301 12.6832 45.9056 11.9579 45.0101 11.9579ZM42.0054 13.5797C42.0054 11.9176 43.3499 10.5717 45.0101 10.5717C46.6704 10.5717 48.0149 11.9176 48.0149 13.5797C48.0149 15.2175 46.6743 16.5877 45.0101 16.5877C43.3499 16.5877 42.0054 15.2418 42.0054 13.5797Z" fill="#141414"/>
<path d="M26.572 53.5218H3.73225C3.34686 53.5218 3.0426 53.2172 3.0426 52.8314C3.0426 52.7704 3.0426 52.7095 3.06288 52.6486L12.9817 16.3819C13.0832 16.0164 13.4686 15.7931 13.8337 15.8946C14.1988 15.9961 14.4219 16.3819 14.3205 16.7474L4.62475 52.1409H25.6592L15.9838 16.7474C15.8824 16.3819 16.1055 15.9961 16.4706 15.8946C16.8357 15.7931 17.2211 16.0164 17.3225 16.3819L27.2414 52.6486C27.3428 53.0141 27.1197 53.3999 26.7546 53.5015C26.6937 53.5218 26.6329 53.5218 26.572 53.5218Z" fill="#141414"/>
<path d="M15.1521 68C6.79513 68 0.020284 61.2178 0 52.872C0 52.8517 0 52.8517 0 52.8314C0 52.4455 0.30426 52.141 0.689655 52.1206C0.750507 52.1206 0.811359 52.1206 0.872211 52.1409H29.432C29.4929 52.1206 29.5538 52.1003 29.6146 52.1206C30 52.141 30.3043 52.4455 30.3043 52.8314V52.872C30.2637 61.2178 23.5091 68 15.1521 68ZM1.39959 53.5218C1.78499 61.1162 8.25558 66.9644 15.8418 66.5786C22.9006 66.2131 28.5396 60.568 28.8844 53.5218H1.39959Z" fill="#141414"/>
<path d="M15.1521 17.6003C12.8398 17.6003 10.9736 15.7321 10.9736 13.4172C10.9736 11.1024 12.8398 9.23419 15.1521 9.23419C17.4645 9.23419 19.3306 11.1024 19.3306 13.4172C19.3306 15.7118 17.4645 17.6003 15.1521 17.6003ZM15.1521 10.615C13.6105 10.615 12.3529 11.874 12.3529 13.4172C12.3529 14.9605 13.6105 16.2195 15.1521 16.2195C16.6937 16.2195 17.9513 14.9605 17.9513 13.4172C17.9513 11.8537 16.6937 10.615 15.1521 10.615Z" fill="#141414"/>
<path d="M86.288 53.5218H63.428C63.0426 53.5218 62.7383 53.2172 62.7383 52.8314C62.7383 52.7704 62.7383 52.7095 62.7586 52.6486L72.6978 16.3819C72.7992 16.0164 73.1846 15.7931 73.5497 15.8946C73.9148 15.9961 74.1379 16.3819 74.0365 16.7474L64.3408 52.1409H85.3753L75.6998 16.7474C75.5984 16.3819 75.8012 15.9961 76.1866 15.8946C76.572 15.7931 76.9371 15.9961 77.0385 16.3819L86.9574 52.6486C87.0588 53.0141 86.8357 53.3999 86.4706 53.5015C86.4097 53.5218 86.3489 53.5218 86.288 53.5218Z" fill="#141414"/>
<path d="M74.8479 68C66.4909 68 59.716 61.2178 59.6957 52.872C59.6957 52.8517 59.6957 52.8517 59.6957 52.8314C59.6957 52.4455 60 52.141 60.3854 52.1206C60.4462 52.1206 60.5071 52.1206 60.568 52.1409H89.1278C89.1886 52.1206 89.2495 52.1003 89.3103 52.1206C89.6957 52.141 90 52.4455 90 52.8314V52.872C89.9797 61.2178 83.2049 68 74.8479 68ZM61.1156 53.5218C61.501 61.1162 67.9716 66.9644 75.5578 66.5786C82.6166 66.2131 88.2556 60.568 88.6004 53.5218H61.1156Z" fill="#141414"/>
<path d="M74.8479 17.6003C72.5355 17.6003 70.6694 15.7321 70.6694 13.4172C70.6694 11.1024 72.5355 9.23419 74.8479 9.23419C77.1602 9.23419 79.0264 11.1024 79.0264 13.4172C79.0467 15.7118 77.1602 17.6003 74.8479 17.6003ZM74.8479 10.615C73.3063 10.615 72.0487 11.874 72.0487 13.4172C72.0487 14.9605 73.3063 16.2195 74.8479 16.2195C76.3895 16.2195 77.647 14.9605 77.647 13.4172C77.647 11.8537 76.4097 10.615 74.8479 10.615Z" fill="#141414"/>
<path d="M45.0101 16.585C43.3469 16.585 42.0081 15.2245 42.0081 13.5797C42.0081 11.9146 43.3671 10.5744 45.0101 10.5744C46.6734 10.5744 48.0122 11.9146 48.0122 13.5797C48.0122 15.2245 46.6734 16.585 45.0101 16.585ZM45.0101 11.9349C44.1176 11.9349 43.3874 12.6659 43.3874 13.5594C43.3874 14.4529 44.1176 15.1839 45.0101 15.1839C45.9026 15.1839 46.6329 14.4529 46.6329 13.5594C46.6329 12.6659 45.9026 11.9349 45.0101 11.9349Z" fill="#141414"/>
</svg>
