<svg width="972" height="306" viewBox="0 0 972 306" fill="none" xmlns="http://www.w3.org/2000/svg">
<path d="M178 226.493C156.4 227.293 122.333 239.493 108 245.493C39.2 255.093 7.3333 289.493 -3.05176e-05 305.493H972V0.493164C969.333 10.1598 951.8 29.6932 903 30.4932C842 31.4932 798 44.4932 772 58.4932C746 72.4932 733.5 75.4932 709.5 76.9932C692.733 78.0411 660.5 79.4125 638 84.4932C627.667 86.8265 600.6 92.8932 575 98.4932C543 105.493 528 119.493 507 132.493C486 145.493 463 145.493 438 146.493C413 147.493 395 160.493 373 173.493C351 186.493 336 192.493 305 195.493C274 198.493 252 209.493 241 213.493C230 217.493 205 225.493 178 226.493Z" fill="url(#paint0_linear_123_299)"/>
<defs>
<linearGradient id="paint0_linear_123_299" x1="486" y1="12.4932" x2="486" y2="269.493" gradientUnits="userSpaceOnUse">
<stop stop-color="#CCFF33"/>
<stop offset="1" stop-color="#CCFF33" stop-opacity="0"/>
</linearGradient>
</defs>
</svg>
