<svg width="559" height="152" viewBox="0 0 559 152" fill="none" xmlns="http://www.w3.org/2000/svg">
<path d="M111 112C98.5778 112.399 87.5119 130 70.5 130C27 130 4.21742 144.026 0 152H559V0C557.466 4.81749 548.565 17.1013 520.5 17.5C485.419 17.9984 461.453 20.523 446.5 27.5C431.547 34.4771 422.323 39 408.5 39C393.5 39 385.5 42.1627 371 45C365.057 46.1628 350.5 50 333 51.5C314.337 53.0997 307.577 63.5213 295.5 70C283.423 76.4787 273.878 76.5016 259.5 77C245.122 77.4984 234.152 83.5213 221.5 90C208.848 96.4787 205 96.5 184.5 96.5C166.609 96.5 152.826 103.507 146.5 105.5C140.174 107.493 126.528 111.502 111 112Z" fill="url(#paint0_linear_176_1911)"/>
<defs>
<linearGradient id="paint0_linear_176_1911" x1="279.5" y1="5.98033" x2="279.5" y2="134.059" gradientUnits="userSpaceOnUse">
<stop stop-color="#CCFF33"/>
<stop offset="1" stop-color="#CCFF33" stop-opacity="0"/>
</linearGradient>
</defs>
</svg>
